<svg width="18" height="18" viewBox="0 0 18 18" fill="none" xmlns="http://www.w3.org/2000/svg">
<path fill-rule="evenodd" clip-rule="evenodd" d="M4.34532 1.01668C7.4392 0.674127 10.5614 0.674127 13.6553 1.01668C15.3683 1.20868 16.7503 2.55768 16.9513 4.27668C17.3179 7.41467 17.3179 10.5847 16.9513 13.7227C16.7503 15.4417 15.3683 16.7907 13.6553 16.9827C10.5614 17.3252 7.4392 17.3252 4.34532 16.9827C2.63232 16.7907 1.25032 15.4417 1.04932 13.7227C0.682778 10.585 0.682778 7.41534 1.04932 4.27768C1.15099 3.44255 1.5317 2.66623 2.12976 2.07453C2.72781 1.48282 3.50816 1.11042 4.34432 1.01768M9.00032 4.00668C9.19924 4.00668 9.39 4.0857 9.53065 4.22635C9.67131 4.367 9.75032 4.55777 9.75032 4.75668V8.24968H13.2433C13.4422 8.24968 13.633 8.3287 13.7737 8.46935C13.9143 8.61 13.9933 8.80077 13.9933 8.99968C13.9933 9.19859 13.9143 9.38936 13.7737 9.53001C13.633 9.67066 13.4422 9.74968 13.2433 9.74968H9.75032V13.2427C9.75032 13.4416 9.67131 13.6324 9.53065 13.773C9.39 13.9137 9.19924 13.9927 9.00032 13.9927C8.80141 13.9927 8.61065 13.9137 8.46999 13.773C8.32934 13.6324 8.25032 13.4416 8.25032 13.2427V9.74968H4.75732C4.55841 9.74968 4.36765 9.67066 4.22699 9.53001C4.08634 9.38936 4.00732 9.19859 4.00732 8.99968C4.00732 8.80077 4.08634 8.61 4.22699 8.46935C4.36765 8.3287 4.55841 8.24968 4.75732 8.24968H8.25032V4.75668C8.25032 4.55777 8.32934 4.367 8.46999 4.22635C8.61065 4.0857 8.80141 4.00668 9.00032 4.00668Z" fill="#1242D2"/>
</svg>
