<svg width="20" height="20" viewBox="0 0 20 20" fill="none" xmlns="http://www.w3.org/2000/svg">
<path d="M10.1935 2.30768C9.76245 2.30768 9.4126 1.96307 9.4126 1.53846V0.769228C9.4126 0.344614 9.76245 0 10.1935 0C10.6246 0 10.9744 0.344614 10.9744 0.769228V1.53846C10.9744 1.96307 10.6246 2.30768 10.1935 2.30768Z" fill="#CCCCCC"/>
<path d="M17.0084 9.02099C16.5773 9.02099 16.2275 8.67638 16.2275 8.25177C16.2275 5.12562 13.6504 2.46179 10.483 2.3141C7.31172 2.16987 4.4844 4.57563 4.1857 7.68369C4.16774 7.86946 4.15876 8.06023 4.15876 8.25177C4.15876 8.67638 3.80891 9.02099 3.37784 9.02099C2.94678 9.02099 2.59692 8.67638 2.59692 8.25177C2.59692 8.01177 2.60825 7.77177 2.63089 7.53869C3.00691 3.62486 6.56672 0.592567 10.5568 0.777566C14.545 0.963334 17.7893 4.3164 17.7893 8.25177C17.7893 8.67676 17.4394 9.02099 17.0084 9.02099Z" fill="#CCCCCC"/>
<path d="M18.4723 14.2672C18.2798 14.2672 18.0865 14.1972 17.9354 14.0568C16.85 13.0445 16.2272 11.6191 16.2272 10.1464C16.2272 9.72181 16.577 9.3772 17.0081 9.3772C17.4392 9.3772 17.789 9.72181 17.789 10.1464C17.789 11.1983 18.2337 12.2168 19.0092 12.9395C19.3224 13.2314 19.336 13.7183 19.0397 14.0272C18.8862 14.1864 18.6793 14.2672 18.4723 14.2672Z" fill="#CCCCCC"/>
<path d="M1.9133 14.2672C1.70596 14.2672 1.49941 14.1868 1.34596 14.0268C1.0496 13.7183 1.06327 13.2314 1.37642 12.9395C2.15187 12.2168 2.5966 11.1987 2.5966 10.1464C2.5966 9.72181 2.94645 9.3772 3.37752 9.3772C3.80859 9.3772 4.15844 9.72181 4.15844 10.1464C4.15844 11.6199 3.53566 13.0453 2.45018 14.0568C2.29868 14.1972 2.10579 14.2672 1.9133 14.2672Z" fill="#CCCCCC"/>
<path d="M10.1933 19.9999C8.077 19.9999 6.2887 18.2384 6.2887 16.1537C6.2887 15.7291 6.63855 15.3845 7.06961 15.3845C7.50068 15.3845 7.85053 15.7291 7.85053 16.1537C7.85053 17.4045 8.92351 18.4614 10.1933 18.4614C11.4631 18.4614 12.536 17.4045 12.536 16.1537C12.536 15.7291 12.8859 15.3845 13.317 15.3845C13.748 15.3845 14.0979 15.7291 14.0979 16.1537C14.0979 18.2384 12.3096 19.9999 10.1933 19.9999Z" fill="#CCCCCC"/>
<path d="M2.98705 16.9228C2.0355 16.9228 1.18898 16.3498 0.830152 15.4628C0.47093 14.5748 0.685292 13.5844 1.3764 12.9398C1.68955 12.6475 2.18348 12.6609 2.48062 12.9694C2.77698 13.2778 2.76371 13.7648 2.45056 14.0571C2.10852 14.3763 2.23424 14.7782 2.2811 14.8936C2.32756 15.0082 2.51616 15.3844 2.98705 15.3844C3.41812 15.3844 3.76797 15.729 3.76797 16.1536C3.76797 16.5782 3.41851 16.9228 2.98705 16.9228Z" fill="#CCCCCC"/>
<path d="M17.399 16.9228C16.9679 16.9228 16.618 16.5782 16.618 16.1535C16.618 15.7289 16.9679 15.3843 17.399 15.3843C17.8702 15.3843 18.0592 15.0066 18.1061 14.8909C18.1525 14.7759 18.2779 14.3755 17.9358 14.0566C17.6227 13.7643 17.609 13.2778 17.9054 12.969C18.2021 12.6605 18.6961 12.647 19.0096 12.939C19.7007 13.5836 19.9155 14.5732 19.557 15.4597C19.1978 16.3485 18.3505 16.9228 17.399 16.9228Z" fill="#CCCCCC"/>
<path d="M3.37772 10.9157C2.94665 10.9157 2.5968 10.5711 2.5968 10.1465V8.25189C2.5968 7.82728 2.94665 7.48267 3.37772 7.48267C3.80879 7.48267 4.15865 7.82728 4.15865 8.25189V10.1465C4.15865 10.5711 3.80918 10.9157 3.37772 10.9157Z" fill="#CCCCCC"/>
<path d="M17.0085 10.9157C16.5774 10.9157 16.2275 10.5711 16.2275 10.1465V8.25189C16.2275 7.82728 16.5774 7.48267 17.0085 7.48267C17.4395 7.48267 17.7894 7.82728 17.7894 8.25189V10.1465C17.7894 10.5711 17.4395 10.9157 17.0085 10.9157Z" fill="#CCCCCC"/>
<path d="M17.3988 16.923H2.98697C2.55591 16.923 2.20605 16.5784 2.20605 16.1537C2.20605 15.7291 2.55591 15.3845 2.98697 15.3845H17.3984C17.8295 15.3845 18.1793 15.7291 18.1793 16.1537C18.1793 16.5784 17.8299 16.923 17.3988 16.923Z" fill="#CCCCCC"/>
</svg>
