<svg width="18" height="18" viewBox="0 0 18 18" fill="none" xmlns="http://www.w3.org/2000/svg">
<path fill-rule="evenodd" clip-rule="evenodd" d="M0 0.75C0 0.551088 0.0790178 0.360322 0.21967 0.21967C0.360322 0.0790178 0.551088 0 0.75 0H17.25C17.4489 0 17.6397 0.0790178 17.7803 0.21967C17.921 0.360322 18 0.551088 18 0.75V17.25C18 17.4489 17.921 17.6397 17.7803 17.7803C17.6397 17.921 17.4489 18 17.25 18H0.75C0.551088 18 0.360322 17.921 0.21967 17.7803C0.0790178 17.6397 0 17.4489 0 17.25V0.75ZM1.5 1.5V16.5H16.5V1.5H1.5Z" fill="#1242D2"/>
</svg>
