<svg width="24" height="24" viewBox="0 0 24 24" fill="none" xmlns="http://www.w3.org/2000/svg">
<g clip-path="url(#clip0_2_606)">
<path d="M13.5121 1.44302C13.7171 1.32397 13.9437 1.24672 14.1787 1.21575C14.4141 1.18474 14.6534 1.20076 14.8825 1.26289L14.883 1.26302C15.342 1.38778 15.7334 1.68826 15.9725 2.09943L15.9736 2.10136L16.8469 3.61287H18.5868C19.0645 3.61287 19.5226 3.80265 19.8604 4.14044C20.1982 4.47823 20.388 4.93637 20.388 5.41407V7.15511L21.9005 8.02943L21.9008 8.02959C22.3142 8.26876 22.6157 8.66231 22.739 9.12369C22.8622 9.58508 22.7972 10.0765 22.5583 10.49L22.5581 10.4903L21.6845 12.0002L22.5569 13.5093L13.5121 1.44302ZM13.5121 1.44302C13.5118 1.4432 13.5115 1.44339 13.5111 1.44357L12.0013 2.31633L10.4895 1.44167L10.4889 1.44132C10.0752 1.20247 9.58353 1.13774 9.12211 1.26137C8.66081 1.38498 8.26749 1.68672 8.02862 2.10024C8.02856 2.10035 8.0285 2.10045 8.02844 2.10056L7.15433 3.61287H5.41438C4.93667 3.61287 4.47854 3.80265 4.14075 4.14044C3.80297 4.47823 3.61321 4.93637 3.61321 5.41407V7.15411L2.10208 8.02759C2.10182 8.02774 2.10156 8.02789 2.1013 8.02804C1.89617 8.14617 1.71636 8.30363 1.57219 8.49139L2.2067 8.97862L1.57218 8.49139C1.42783 8.67938 1.32204 8.89405 1.2609 9.12305L2.03382 9.32942L1.2609 9.12305C1.19975 9.35205 1.18446 9.59088 1.21589 9.82581C1.24727 10.0603 1.3246 10.2863 1.44344 10.4909C1.44365 10.4913 1.44386 10.4916 1.44407 10.492L2.31658 12L1.4431 13.5096L1.44188 13.5118C1.20453 13.9249 1.14013 14.4151 1.26273 14.8755C1.38532 15.3359 1.68497 15.7292 2.09634 15.9696L2.09962 15.9715L3.61221 16.8459V18.5859C3.61221 19.0636 3.80197 19.5217 4.13975 19.8595L4.70545 19.2939L4.13975 19.8595C4.47754 20.1973 4.93567 20.3871 5.41338 20.3871H7.15433L8.02861 21.8997L8.03072 21.9033C8.18948 22.1747 8.41615 22.4001 8.68844 22.5573C8.96073 22.7146 9.26926 22.7982 9.58368 22.8H9.58826C9.9034 22.8 10.2146 22.7167 10.4902 22.5575L10.4905 22.5573L12.0003 21.6837L13.512 22.5575L13.5127 22.5579C13.9261 22.7963 14.4172 22.861 14.8782 22.7378C15.3392 22.6146 15.7326 22.3135 15.972 21.9007L15.9727 21.8995L16.846 20.3871H18.5858C19.0635 20.3871 19.5216 20.1973 19.8594 19.8595C20.1972 19.5217 20.387 19.0636 20.387 18.5859V16.8459L21.8995 15.9716C21.8995 15.9716 21.8995 15.9716 21.8995 15.9715C22.1044 15.8531 22.284 15.6955 22.4279 15.5076C22.5719 15.3198 22.6774 15.1054 22.7385 14.8767C22.7995 14.648 22.8149 14.4096 22.7838 14.175C22.7526 13.9406 22.6757 13.7146 22.5572 13.5099L13.5121 1.44302ZM9.99305 8.98304L10.5586 9.54891L9.99305 8.98304C9.86131 9.11471 9.68266 9.18863 9.49642 9.18857C9.31018 9.18851 9.13159 9.11446 8.99993 8.98271C8.86827 8.85096 8.79434 8.6723 8.7944 8.48603C8.79446 8.29976 8.86852 8.12115 9.00026 7.98949C9.13201 7.85783 9.31065 7.7839 9.49689 7.78396C9.68313 7.78402 9.86173 7.85807 9.99338 7.98982C10.125 8.12157 10.199 8.30023 10.1989 8.4865C10.1989 8.67277 10.1248 8.85138 9.99305 8.98304ZM14.0071 14.9969L13.4416 14.431L14.0071 14.9969C14.0724 14.9317 14.1498 14.88 14.235 14.8447C14.3202 14.8095 14.4115 14.7913 14.5037 14.7914C14.69 14.7914 14.8686 14.8655 15.0002 14.9972C15.1319 15.129 15.2058 15.3076 15.2058 15.4939C15.2057 15.6802 15.1317 15.8588 14.9999 15.9905C14.8682 16.1221 14.6895 16.196 14.5033 16.196C14.4111 16.196 14.3198 16.1778 14.2346 16.1424C14.1494 16.1071 14.072 16.0554 14.0068 15.9901C13.9416 15.9249 13.8899 15.8475 13.8546 15.7622C13.8194 15.677 13.8012 15.5857 13.8013 15.4935C13.8013 15.4012 13.8195 15.3099 13.8548 15.2247L13.1158 14.9183L13.8548 15.2247C13.8901 15.1395 13.9419 15.0621 14.0071 14.9969ZM14.6844 8.74614L9.63731 15.4757L9.31581 15.2348L14.3629 8.5052L14.6844 8.74614Z" stroke="#5F5C5C" stroke-width="1.6"/>
</g>
<defs>
<clipPath id="clip0_2_606">
<rect width="24" height="24" fill="white"/>
</clipPath>
</defs>
</svg>
