<svg width="50" height="50" viewBox="0 0 50 50" fill="none" xmlns="http://www.w3.org/2000/svg">
<g filter="url(#filter0_d_170_265)">
<circle cx="25" cy="25" r="19" fill="white"/>
<circle cx="25" cy="25" r="18.3448" stroke="#D7D7D7" stroke-width="1.31034"/>
</g>
<g clip-path="url(#clip0_170_265)">
<path fill-rule="evenodd" clip-rule="evenodd" d="M33.5161 18.7747C34.0119 18.7745 34.4896 18.9618 34.8532 19.299C35.2168 19.6361 35.4395 20.0983 35.4767 20.5928L35.4816 20.7402V30.5678C35.4817 31.0636 35.2945 31.5412 34.9573 31.9049C34.6201 32.2685 34.158 32.4912 33.6635 32.5284L33.5161 32.5333H17.7919C17.2961 32.5334 16.8184 32.3462 16.4548 32.009C16.0912 31.6718 15.8685 31.2097 15.8313 30.7152L15.8264 30.5678V20.7402C15.8263 20.2443 16.0135 19.7667 16.3507 19.4031C16.6879 19.0395 17.15 18.8168 17.6445 18.7796L17.7919 18.7747H33.5161ZM30.5707 20.7402H20.7373L20.7402 20.863C20.7402 21.2341 20.6671 21.6015 20.5251 21.9443C20.3831 22.2871 20.175 22.5985 19.9127 22.8609C19.6503 23.1233 19.3388 23.3314 18.996 23.4734C18.6532 23.6154 18.2858 23.6885 17.9148 23.6885L17.7919 23.6855V27.6224L17.9148 27.6195C18.6641 27.6195 19.3828 27.9172 19.9127 28.447C20.4425 28.9769 20.7402 29.6956 20.7402 30.4449L20.7373 30.5678H30.5707L30.5678 30.4449C30.5678 29.7243 30.8431 29.031 31.3375 28.5067C31.8318 27.9824 32.5078 27.6668 33.2271 27.6244L33.4551 27.6205L33.5161 27.6224V23.6855L33.3932 23.6885C32.6726 23.6884 31.9793 23.4131 31.455 22.9188C30.9307 22.4244 30.6151 21.7485 30.5727 21.0291L30.5678 20.8011L30.5707 20.7402ZM33.3932 29.585C33.2699 29.585 33.1481 29.6115 33.0359 29.6628C32.9238 29.714 32.8239 29.7888 32.7432 29.882C32.6625 29.9752 32.6028 30.0847 32.5681 30.203C32.5334 30.3213 32.5245 30.4457 32.5422 30.5678H33.5161V29.5938C33.4754 29.588 33.4343 29.5851 33.3932 29.585ZM17.9148 29.585C17.8737 29.5851 17.8326 29.588 17.7919 29.5938V30.5678H18.7658C18.7835 30.4457 18.7746 30.3213 18.7399 30.203C18.7052 30.0847 18.6455 29.9752 18.5648 29.882C18.4841 29.7888 18.3843 29.714 18.2721 29.6628C18.1599 29.6115 18.0381 29.585 17.9148 29.585ZM25.654 21.7229C26.6966 21.7229 27.6965 22.1371 28.4337 22.8743C29.1709 23.6115 29.585 24.6114 29.585 25.654C29.585 26.6965 29.1709 27.6964 28.4337 28.4336C27.6965 29.1708 26.6966 29.585 25.654 29.585C24.6114 29.585 23.6116 29.1708 22.8743 28.4336C22.1371 27.6964 21.723 26.6965 21.723 25.654C21.723 24.6114 22.1371 23.6115 22.8743 22.8743C23.6116 22.1371 24.6114 21.7229 25.654 21.7229ZM25.654 23.6885C25.1327 23.6885 24.6328 23.8955 24.2642 24.2641C23.8956 24.6327 23.6885 25.1327 23.6885 25.654C23.6885 26.1753 23.8956 26.6752 24.2642 27.0438C24.6328 27.4124 25.1327 27.6195 25.654 27.6195C26.1753 27.6195 26.6752 27.4124 27.0438 27.0438C27.4124 26.6752 27.6195 26.1753 27.6195 25.654C27.6195 25.1327 27.4124 24.6327 27.0438 24.2641C26.6752 23.8955 26.1753 23.6885 25.654 23.6885ZM18.7658 20.7402H17.7919V21.7141C17.914 21.7317 18.0384 21.7229 18.1567 21.6882C18.275 21.6535 18.3845 21.5938 18.4777 21.513C18.5709 21.4323 18.6457 21.3325 18.6969 21.2203C18.7482 21.1082 18.7747 20.9863 18.7747 20.863L18.7727 20.8011L18.7658 20.7402ZM33.5161 20.7402H32.5422C32.5245 20.8622 32.5334 20.9866 32.5681 21.1049C32.6028 21.2233 32.6625 21.3327 32.7432 21.426C32.8239 21.5192 32.9238 21.5939 33.0359 21.6452C33.1481 21.6964 33.2699 21.7229 33.3932 21.7229L33.4551 21.721L33.5161 21.7131V20.7402Z" fill="#5A595B"/>
</g>
<defs>
<filter id="filter0_d_170_265" x="0.758621" y="0.758621" width="48.4828" height="48.4828" filterUnits="userSpaceOnUse" color-interpolation-filters="sRGB">
<feFlood flood-opacity="0" result="BackgroundImageFix"/>
<feColorMatrix in="SourceAlpha" type="matrix" values="0 0 0 0 0 0 0 0 0 0 0 0 0 0 0 0 0 0 127 0" result="hardAlpha"/>
<feOffset/>
<feGaussianBlur stdDeviation="2.62069"/>
<feComposite in2="hardAlpha" operator="out"/>
<feColorMatrix type="matrix" values="0 0 0 0 0 0 0 0 0 0 0 0 0 0 0 0 0 0 0.1 0"/>
<feBlend mode="normal" in2="BackgroundImageFix" result="effect1_dropShadow_170_265"/>
<feBlend mode="normal" in="SourceGraphic" in2="effect1_dropShadow_170_265" result="shape"/>
</filter>
<clipPath id="clip0_170_265">
<rect width="23.5862" height="23.5862" fill="white" transform="translate(13.8633 13.8633)"/>
</clipPath>
</defs>
</svg>
