<svg width="24" height="25" viewBox="0 0 24 25" fill="none" xmlns="http://www.w3.org/2000/svg">
<path fill-rule="evenodd" clip-rule="evenodd" d="M19.6528 5.8183C20.1487 5.81814 20.6263 6.00542 20.9899 6.3426C21.3535 6.67977 21.5762 7.14192 21.6134 7.6364L21.6183 7.78382V17.6114C21.6185 18.1073 21.4312 18.5849 21.094 18.9485C20.7568 19.3121 20.2947 19.5348 19.8002 19.572L19.6528 19.5769H3.92865C3.43278 19.5771 2.95516 19.3898 2.59156 19.0526C2.22796 18.7154 2.00524 18.2533 1.96805 17.7588L1.96313 17.6114V7.78382C1.96298 7.28794 2.15026 6.81033 2.48743 6.44673C2.82461 6.08312 3.28676 5.8604 3.78124 5.82321L3.92865 5.8183H19.6528ZM16.7075 7.78382H6.87398L6.87693 7.90666C6.87693 8.2777 6.80385 8.64511 6.66185 8.98791C6.51986 9.3307 6.31174 9.64218 6.04938 9.90454C5.78701 10.1669 5.47554 10.375 5.13274 10.517C4.78995 10.659 4.42254 10.7321 4.0515 10.7321L3.92865 10.7291V14.6661L4.0515 14.6631C4.80085 14.6631 5.51951 14.9608 6.04938 15.4907C6.57925 16.0205 6.87693 16.7392 6.87693 17.4886L6.87398 17.6114H16.7075L16.7045 17.4886C16.7045 16.768 16.9799 16.0746 17.4742 15.5503C17.9685 15.026 18.6445 14.7104 19.3639 14.668L19.5919 14.6641L19.6528 14.6661V10.7291L19.5299 10.7321C18.8094 10.7321 18.116 10.4568 17.5917 9.96241C17.0674 9.46808 16.7518 8.7921 16.7094 8.07275L16.7045 7.84475L16.7075 7.78382ZM19.5299 16.6286C19.4066 16.6286 19.2848 16.6552 19.1726 16.7064C19.0605 16.7576 18.9606 16.8324 18.8799 16.9256C18.7992 17.0188 18.7395 17.1283 18.7048 17.2466C18.6701 17.365 18.6613 17.4894 18.6789 17.6114H19.6528V16.6375C19.6121 16.6317 19.5711 16.6287 19.5299 16.6286ZM4.0515 16.6286C4.01039 16.6287 3.96934 16.6317 3.92865 16.6375V17.6114H4.90257C4.92018 17.4894 4.91134 17.365 4.87665 17.2466C4.84196 17.1283 4.78223 17.0188 4.70151 16.9256C4.62079 16.8324 4.52097 16.7576 4.40882 16.7064C4.29666 16.6552 4.1748 16.6286 4.0515 16.6286ZM11.7907 8.76657C12.8333 8.76657 13.8332 9.18074 14.5704 9.91795C15.3076 10.6552 15.7218 11.655 15.7218 12.6976C15.7218 13.7402 15.3076 14.7401 14.5704 15.4773C13.8332 16.2145 12.8333 16.6286 11.7907 16.6286C10.7481 16.6286 9.74827 16.2145 9.01106 15.4773C8.27385 14.7401 7.85969 13.7402 7.85969 12.6976C7.85969 11.655 8.27385 10.6552 9.01106 9.91795C9.74827 9.18074 10.7481 8.76657 11.7907 8.76657ZM11.7907 10.7321C11.2694 10.7321 10.7695 10.9392 10.4009 11.3078C10.0323 11.6764 9.8252 12.1763 9.8252 12.6976C9.8252 13.2189 10.0323 13.7188 10.4009 14.0874C10.7695 14.456 11.2694 14.6631 11.7907 14.6631C12.312 14.6631 12.8119 14.456 13.1806 14.0874C13.5492 13.7188 13.7562 13.2189 13.7562 12.6976C13.7562 12.1763 13.5492 11.6764 13.1806 11.3078C12.8119 10.9392 12.312 10.7321 11.7907 10.7321ZM4.90257 7.78382H3.92865V8.75773C4.05069 8.77534 4.17509 8.76651 4.29342 8.73182C4.41174 8.69713 4.52122 8.6374 4.61443 8.55668C4.70764 8.47596 4.7824 8.37613 4.83365 8.26398C4.88489 8.15183 4.91141 8.02996 4.91141 7.90666L4.90945 7.84475L4.90257 7.78382ZM19.6528 7.78382H18.6789C18.6613 7.90586 18.6701 8.03026 18.7048 8.14858C18.7395 8.26691 18.7992 8.37639 18.8799 8.4696C18.9606 8.56281 19.0605 8.63757 19.1726 8.68881C19.2848 8.74005 19.4066 8.76657 19.5299 8.76657L19.5919 8.76461L19.6528 8.75675V7.78382Z" fill="#5A595B"/>
</svg>
