<svg width="18" height="15" viewBox="0 0 18 15" fill="none" xmlns="http://www.w3.org/2000/svg">
<path d="M1 5.5V3.5C1 2.96957 1.21071 2.46086 1.58579 2.08579C1.96086 1.71071 2.46957 1.5 3 1.5H15C15.5304 1.5 16.0391 1.71071 16.4142 2.08579C16.7893 2.46086 17 2.96957 17 3.5V5.5M1 5.5H17M1 5.5V11.5C1 12.0304 1.21071 12.5391 1.58579 12.9142C1.96086 13.2893 2.46957 13.5 3 13.5H15C15.5304 13.5 16.0391 13.2893 16.4142 12.9142C16.7893 12.5391 17 12.0304 17 11.5V5.5M4 10.5H9" stroke="#5A595B" stroke-width="2" stroke-linecap="round" stroke-linejoin="round"/>
</svg>
