<svg width="16" height="17" viewBox="0 0 16 17" fill="none" xmlns="http://www.w3.org/2000/svg">
<path fill-rule="evenodd" clip-rule="evenodd" d="M11 15.7C12.0609 15.7 13.0783 15.2786 13.8284 14.5284C14.5786 13.7783 15 12.7609 15 11.7C15 10.6391 14.5786 9.62173 13.8284 8.87158C13.0783 8.12144 12.0609 7.70001 11 7.70001C9.93913 7.70001 8.92172 8.12144 8.17157 8.87158C7.42143 9.62173 7 10.6391 7 11.7C7 12.7609 7.42143 13.7783 8.17157 14.5284C8.92172 15.2786 9.93913 15.7 11 15.7ZM16 11.7C16 13.0261 15.4732 14.2979 14.5355 15.2355C13.5979 16.1732 12.3261 16.7 11 16.7C9.67392 16.7 8.40215 16.1732 7.46447 15.2355C6.52678 14.2979 6 13.0261 6 11.7C6 10.3739 6.52678 9.10216 7.46447 8.16448C8.40215 7.2268 9.67392 6.70001 11 6.70001C12.3261 6.70001 13.5979 7.2268 14.5355 8.16448C15.4732 9.10216 16 10.3739 16 11.7Z" fill="#5A595B"/>
<path d="M9.43801 12.644C9.48501 13.24 9.95601 13.704 10.801 13.76V14.2H11.176V13.757C12.051 13.696 12.562 13.228 12.562 12.55C12.562 11.932 12.172 11.614 11.472 11.45L11.176 11.38V10.18C11.552 10.223 11.79 10.428 11.847 10.712H12.505C12.458 10.137 11.965 9.68801 11.176 9.63901V9.20001H10.801V9.65001C10.054 9.72301 9.54601 10.172 9.54601 10.808C9.54601 11.37 9.92401 11.728 10.553 11.874L10.801 11.935V13.207C10.417 13.149 10.162 12.937 10.105 12.644H9.43801ZM10.798 11.29C10.429 11.205 10.229 11.03 10.229 10.768C10.229 10.474 10.445 10.254 10.801 10.19V11.29H10.798ZM11.23 12.036C11.679 12.14 11.885 12.308 11.885 12.605C11.885 12.944 11.628 13.176 11.176 13.219V12.024L11.23 12.036Z" fill="#5A595B"/>
<path d="M1 0.700012C0.734784 0.700012 0.48043 0.805369 0.292893 0.992905C0.105357 1.18044 0 1.4348 0 1.70001L0 9.70001C0 9.96523 0.105357 10.2196 0.292893 10.4071C0.48043 10.5947 0.734784 10.7 1 10.7H5.083C5.14167 10.3553 5.22767 10.022 5.341 9.70001H3C3 9.16958 2.78929 8.66087 2.41421 8.2858C2.03914 7.91073 1.53043 7.70001 1 7.70001V3.70001C1.53043 3.70001 2.03914 3.4893 2.41421 3.11423C2.78929 2.73915 3 2.23045 3 1.70001H13C13 2.23045 13.2107 2.73915 13.5858 3.11423C13.9609 3.4893 14.4696 3.70001 15 3.70001V7.22801C15.38 7.56801 15.717 7.95601 16 8.38201V1.70001C16 1.4348 15.8946 1.18044 15.7071 0.992905C15.5196 0.805369 15.2652 0.700012 15 0.700012H1Z" fill="#5A595B"/>
<path d="M9.998 5.78298L10 5.69998C9.9998 5.35557 9.91066 5.01705 9.74121 4.71721C9.57177 4.41737 9.32777 4.16636 9.03284 3.9885C8.73791 3.81064 8.40205 3.71196 8.05778 3.70201C7.71352 3.69206 7.37252 3.77118 7.06781 3.9317C6.7631 4.09223 6.50501 4.32872 6.31853 4.61828C6.13205 4.90784 6.02351 5.24064 6.00341 5.58447C5.98331 5.92829 6.05234 6.27147 6.20381 6.58078C6.35529 6.89009 6.58407 7.15505 6.868 7.34998C7.73239 6.52816 8.82211 5.98261 9.998 5.78298Z" fill="#5A595B"/>
</svg>
