<svg width="50" height="50" viewBox="0 0 50 50" fill="none" xmlns="http://www.w3.org/2000/svg">
<g filter="url(#filter0_d_170_250)">
<circle cx="25" cy="25" r="19" fill="white"/>
<circle cx="25" cy="25" r="18.3621" stroke="#D7D7D7" stroke-width="1.27586"/>
</g>
<g clip-path="url(#clip0_170_250)">
<path d="M32.2233 22.4867C33.0878 22.4867 33.7559 22.7225 34.2668 23.1941C34.7776 23.6656 35.0134 24.2944 35.0134 25.0804V28.8529H33.9131V27.9885H33.8737C33.4022 28.6959 32.7341 29.0496 31.9482 29.0496C31.2801 29.0496 30.6906 28.853 30.2191 28.4601C29.7868 28.0671 29.5117 27.5169 29.5117 26.9275C29.5117 26.2987 29.7475 25.7878 30.2191 25.3948C30.6906 25.0018 31.3587 24.8446 32.1446 24.8446C32.852 24.8446 33.4022 24.9626 33.8344 25.2376V24.9626C33.8344 24.5958 33.6975 24.229 33.4236 23.99L33.3628 23.9408C33.0485 23.6657 32.6555 23.5085 32.2233 23.5085C31.5552 23.5085 31.0443 23.7836 30.6906 24.3338L29.6689 23.7049C30.2976 22.8796 31.1229 22.4867 32.2233 22.4867ZM26.6822 19.8144C27.3874 19.8144 28.0575 20.0598 28.5933 20.5174L28.6864 20.6003C29.2366 21.0719 29.5117 21.7793 29.5117 22.5259C29.5117 23.2726 29.2366 23.9407 28.6864 24.4515C28.1362 24.9625 27.4682 25.2375 26.6822 25.2375L24.7959 25.1982V28.8529H23.6169V19.8144H26.6822ZM32.3804 25.7877C31.9088 25.7877 31.5159 25.9056 31.2015 26.1414C30.8871 26.3379 30.7299 26.6129 30.7299 26.9666C30.7299 27.281 30.8871 27.5561 31.1229 27.7133C31.398 27.9098 31.7124 28.0277 32.0268 28.0277C32.4669 28.0277 32.907 27.8565 33.2513 27.5461L33.3236 27.4775C33.7166 27.1238 33.9131 26.6916 33.9131 26.22C33.5594 25.9449 33.0485 25.7877 32.3804 25.7877M26.7609 20.9147H24.796V24.0587H26.7609C27.1931 24.0587 27.6254 23.9015 27.9005 23.5871C28.5293 22.9977 28.5293 22.0152 27.9399 21.4257L27.9005 21.3864C27.5861 21.072 27.1931 20.8755 26.7608 20.9148M41.3797 22.6832L37.4892 31.6039H36.3103L37.7642 28.4993L35.2099 22.7225H36.4674L38.3144 27.1632H38.3537L40.1614 22.7225H41.3797V22.6832Z" fill="#3F4142"/>
<path d="M20.1145 24.4153C20.1145 24.0616 20.0752 23.7079 20.0359 23.3543H15.1238V25.3585H17.9139C17.796 25.9872 17.4424 26.5767 16.8922 26.9304V28.2272H18.582C19.5644 27.3234 20.1146 25.9872 20.1146 24.4154" fill="#4285F4"/>
<path d="M15.1271 29.4824C16.5418 29.4824 17.7208 29.0108 18.5853 28.2249L16.8955 26.9281C16.4239 27.2424 15.8345 27.4389 15.1271 27.4389C13.791 27.4389 12.612 26.5351 12.219 25.2775H10.49V26.6136C11.3938 28.3821 13.1622 29.4824 15.1271 29.4824Z" fill="#34A853"/>
<path d="M12.2175 25.2748C11.9818 24.646 11.9818 23.9387 12.2175 23.2706V21.9344H10.4885C9.74179 23.3885 9.74179 25.1176 10.4885 26.6109L12.2175 25.2748Z" fill="#FBBC04"/>
<path d="M15.1266 21.15C15.8732 21.15 16.5806 21.4251 17.1308 21.936L18.6241 20.4427C17.6809 19.5781 16.4234 19.0673 15.1658 19.1065C13.2009 19.1065 11.3933 20.2069 10.5287 21.9753L12.2578 23.3114C12.6115 22.0539 13.7904 21.15 15.1266 21.15Z" fill="#EA4335"/>
</g>
<defs>
<filter id="filter0_d_170_250" x="0.896552" y="0.896552" width="48.2069" height="48.2069" filterUnits="userSpaceOnUse" color-interpolation-filters="sRGB">
<feFlood flood-opacity="0" result="BackgroundImageFix"/>
<feColorMatrix in="SourceAlpha" type="matrix" values="0 0 0 0 0 0 0 0 0 0 0 0 0 0 0 0 0 0 127 0" result="hardAlpha"/>
<feOffset/>
<feGaussianBlur stdDeviation="2.55172"/>
<feComposite in2="hardAlpha" operator="out"/>
<feColorMatrix type="matrix" values="0 0 0 0 0 0 0 0 0 0 0 0 0 0 0 0 0 0 0.1 0"/>
<feBlend mode="normal" in2="BackgroundImageFix" result="effect1_dropShadow_170_250"/>
<feBlend mode="normal" in="SourceGraphic" in2="effect1_dropShadow_170_250" result="shape"/>
</filter>
<clipPath id="clip0_170_250">
<rect width="31.4483" height="12.5302" fill="white" transform="translate(9.92969 19.1026)"/>
</clipPath>
</defs>
</svg>
