<svg width="21" height="20" viewBox="0 0 21 20" fill="none" xmlns="http://www.w3.org/2000/svg">
<path d="M12.5 13C12.7833 13 13.0292 12.8958 13.2375 12.6875C13.4458 12.4792 13.55 12.2333 13.55 11.95C13.55 11.6667 13.4458 11.4208 13.2375 11.2125C13.0292 11.0042 12.7833 10.9 12.5 10.9C12.2167 10.9 11.9708 11.0042 11.7625 11.2125C11.5542 11.4208 11.45 11.6667 11.45 11.95C11.45 12.2333 11.5542 12.4792 11.7625 12.6875C11.9708 12.8958 12.2167 13 12.5 13ZM11.75 9.8H13.25C13.25 9.31667 13.3 8.9625 13.4 8.7375C13.5 8.5125 13.7333 8.21667 14.1 7.85C14.6 7.35 14.9333 6.94583 15.1 6.6375C15.2667 6.32917 15.35 5.96667 15.35 5.55C15.35 4.8 15.0875 4.1875 14.5625 3.7125C14.0375 3.2375 13.35 3 12.5 3C11.8167 3 11.2208 3.19167 10.7125 3.575C10.2042 3.95833 9.85 4.46667 9.65 5.1L11 5.65C11.15 5.23333 11.3542 4.92083 11.6125 4.7125C11.8708 4.50417 12.1667 4.4 12.5 4.4C12.9 4.4 13.225 4.5125 13.475 4.7375C13.725 4.9625 13.85 5.26667 13.85 5.65C13.85 5.88333 13.7833 6.10417 13.65 6.3125C13.5167 6.52083 13.2833 6.78333 12.95 7.1C12.4 7.58333 12.0625 7.9625 11.9375 8.2375C11.8125 8.5125 11.75 9.03333 11.75 9.8ZM6.5 16C5.95 16 5.47917 15.8042 5.0875 15.4125C4.69583 15.0208 4.5 14.55 4.5 14V2C4.5 1.45 4.69583 0.979167 5.0875 0.5875C5.47917 0.195833 5.95 0 6.5 0H18.5C19.05 0 19.5208 0.195833 19.9125 0.5875C20.3042 0.979167 20.5 1.45 20.5 2V14C20.5 14.55 20.3042 15.0208 19.9125 15.4125C19.5208 15.8042 19.05 16 18.5 16H6.5ZM6.5 14H18.5V2H6.5V14ZM2.5 20C1.95 20 1.47917 19.8042 1.0875 19.4125C0.695833 19.0208 0.5 18.55 0.5 18V4H2.5V18H16.5V20H2.5Z" fill="#8CACFF"/>
</svg>
