<svg width="31" height="32" viewBox="0 0 31 32" fill="none" xmlns="http://www.w3.org/2000/svg">
<rect width="31" height="32" rx="15.5" fill="#2354C5"/>
<path d="M20.1665 11.8333H16.8332V13.4999H20.1665C21.5415 13.4999 22.6665 14.6249 22.6665 15.9999C22.6665 17.3749 21.5415 18.4999 20.1665 18.4999H16.8332V20.1666H20.1665C22.4665 20.1666 24.3332 18.2999 24.3332 15.9999C24.3332 13.6999 22.4665 11.8333 20.1665 11.8333ZM15.1665 18.4999H11.8332C10.4582 18.4999 9.33317 17.3749 9.33317 15.9999C9.33317 14.6249 10.4582 13.4999 11.8332 13.4999H15.1665V11.8333H11.8332C9.53317 11.8333 7.6665 13.6999 7.6665 15.9999C7.6665 18.2999 9.53317 20.1666 11.8332 20.1666H15.1665V18.4999ZM12.6665 15.1666H19.3332V16.8333H12.6665V15.1666Z" fill="white"/>
</svg>
