<svg width="38" height="40" viewBox="0 0 38 40" fill="none" xmlns="http://www.w3.org/2000/svg">
<rect x="0.5" y="0.5" width="37" height="39" rx="18.5" stroke="#919191"/>
<path d="M9 27.5C9 26.1739 9.52678 24.9021 10.4645 23.9645C11.4021 23.0268 12.6739 22.5 14 22.5H24C25.3261 22.5 26.5979 23.0268 27.5355 23.9645C28.4732 24.9021 29 26.1739 29 27.5C29 28.163 28.7366 28.7989 28.2678 29.2678C27.7989 29.7366 27.163 30 26.5 30H11.5C10.837 30 10.2011 29.7366 9.73223 29.2678C9.26339 28.7989 9 28.163 9 27.5Z" stroke="#919191" stroke-linejoin="round"/>
<path d="M19 17.5C21.0711 17.5 22.75 15.8211 22.75 13.75C22.75 11.6789 21.0711 10 19 10C16.9289 10 15.25 11.6789 15.25 13.75C15.25 15.8211 16.9289 17.5 19 17.5Z" stroke="#919191"/>
</svg>
