<svg width="70" height="39" viewBox="0 0 70 39" fill="none" xmlns="http://www.w3.org/2000/svg">
<path d="M8.65308 26.4688V35H7.51636L3.22144 28.4199V35H2.09058V26.4688H3.22144L7.53394 33.0664V26.4688H8.65308ZM10.2058 31.9004V31.7656C10.2058 31.3086 10.2722 30.8848 10.405 30.4941C10.5378 30.0996 10.7292 29.7578 10.9792 29.4688C11.2292 29.1758 11.532 28.9492 11.8875 28.7891C12.2429 28.625 12.6414 28.543 13.0828 28.543C13.5281 28.543 13.9285 28.625 14.2839 28.7891C14.6433 28.9492 14.948 29.1758 15.198 29.4688C15.4519 29.7578 15.6453 30.0996 15.7781 30.4941C15.9109 30.8848 15.9773 31.3086 15.9773 31.7656V31.9004C15.9773 32.3574 15.9109 32.7812 15.7781 33.1719C15.6453 33.5625 15.4519 33.9043 15.198 34.1973C14.948 34.4863 14.6453 34.7129 14.2898 34.877C13.9382 35.0371 13.5398 35.1172 13.0945 35.1172C12.6492 35.1172 12.2488 35.0371 11.8933 34.877C11.5378 34.7129 11.2332 34.4863 10.9792 34.1973C10.7292 33.9043 10.5378 33.5625 10.405 33.1719C10.2722 32.7812 10.2058 32.3574 10.2058 31.9004ZM11.2898 31.7656V31.9004C11.2898 32.2168 11.3269 32.5156 11.4011 32.7969C11.4753 33.0742 11.5867 33.3203 11.7351 33.5352C11.8875 33.75 12.0769 33.9199 12.3035 34.0449C12.53 34.166 12.7937 34.2266 13.0945 34.2266C13.3914 34.2266 13.6511 34.166 13.8738 34.0449C14.1003 33.9199 14.2878 33.75 14.4363 33.5352C14.5847 33.3203 14.696 33.0742 14.7703 32.7969C14.8484 32.5156 14.8875 32.2168 14.8875 31.9004V31.7656C14.8875 31.4531 14.8484 31.1582 14.7703 30.8809C14.696 30.5996 14.5828 30.3516 14.4304 30.1367C14.282 29.918 14.0945 29.7461 13.8679 29.6211C13.6453 29.4961 13.3835 29.4336 13.0828 29.4336C12.7859 29.4336 12.5242 29.4961 12.2976 29.6211C12.075 29.7461 11.8875 29.918 11.7351 30.1367C11.5867 30.3516 11.4753 30.5996 11.4011 30.8809C11.3269 31.1582 11.2898 31.4531 11.2898 31.7656ZM19.991 28.6602V29.4922H16.5632V28.6602H19.991ZM17.7234 27.1191H18.8074V33.4297C18.8074 33.6445 18.8406 33.8066 18.907 33.916C18.9734 34.0254 19.0593 34.0977 19.1648 34.1328C19.2703 34.168 19.3835 34.1855 19.5046 34.1855C19.5945 34.1855 19.6882 34.1777 19.7859 34.1621C19.8875 34.1426 19.9636 34.127 20.0144 34.1152L20.0203 35C19.9343 35.0273 19.821 35.0527 19.6804 35.0762C19.5437 35.1035 19.3777 35.1172 19.1824 35.1172C18.9167 35.1172 18.6726 35.0645 18.45 34.959C18.2273 34.8535 18.0496 34.6777 17.9167 34.4316C17.7878 34.1816 17.7234 33.8457 17.7234 33.4238V27.1191ZM22.4402 28.6602V35H21.3503V28.6602H22.4402ZM21.2683 26.9785C21.2683 26.8027 21.321 26.6543 21.4265 26.5332C21.5359 26.4121 21.696 26.3516 21.907 26.3516C22.114 26.3516 22.2722 26.4121 22.3816 26.5332C22.4949 26.6543 22.5515 26.8027 22.5515 26.9785C22.5515 27.1465 22.4949 27.291 22.3816 27.4121C22.2722 27.5293 22.114 27.5879 21.907 27.5879C21.696 27.5879 21.5359 27.5293 21.4265 27.4121C21.321 27.291 21.2683 27.1465 21.2683 26.9785ZM25.6277 35H24.5437V28.1094C24.5437 27.6289 24.6375 27.2227 24.825 26.8906C25.0125 26.5586 25.28 26.3066 25.6277 26.1348C25.9753 25.9629 26.3875 25.877 26.864 25.877C27.1453 25.877 27.4207 25.9121 27.6902 25.9824C27.9597 26.0488 28.2371 26.1328 28.5222 26.2344L28.3406 27.1484C28.1609 27.0781 27.9519 27.0117 27.7136 26.9492C27.4792 26.8828 27.2214 26.8496 26.9402 26.8496C26.4753 26.8496 26.1394 26.9551 25.9324 27.166C25.7292 27.373 25.6277 27.6875 25.6277 28.1094V35ZM26.9226 28.6602V29.4922H23.5417V28.6602H26.9226ZM29.0554 28.6602V35H27.9714V28.6602H29.0554ZM33.3738 34.2266C33.6316 34.2266 33.8699 34.1738 34.0886 34.0684C34.3074 33.9629 34.4871 33.8184 34.6277 33.6348C34.7683 33.4473 34.8484 33.2344 34.8679 32.9961H35.8992C35.8796 33.3711 35.7527 33.7207 35.5183 34.0449C35.2878 34.3652 34.9851 34.625 34.6101 34.8242C34.2351 35.0195 33.823 35.1172 33.3738 35.1172C32.8972 35.1172 32.4812 35.0332 32.1257 34.8652C31.7742 34.6973 31.4812 34.4668 31.2468 34.1738C31.0164 33.8809 30.8425 33.5449 30.7253 33.166C30.6121 32.7832 30.5554 32.3789 30.5554 31.9531V31.707C30.5554 31.2812 30.6121 30.8789 30.7253 30.5C30.8425 30.1172 31.0164 29.7793 31.2468 29.4863C31.4812 29.1934 31.7742 28.9629 32.1257 28.7949C32.4812 28.627 32.8972 28.543 33.3738 28.543C33.8699 28.543 34.3035 28.6445 34.6746 28.8477C35.0457 29.0469 35.3367 29.3203 35.5476 29.668C35.7625 30.0117 35.8796 30.4023 35.8992 30.8398H34.8679C34.8484 30.5781 34.7742 30.3418 34.6453 30.1309C34.5203 29.9199 34.3484 29.752 34.1296 29.627C33.9148 29.498 33.6628 29.4336 33.3738 29.4336C33.0417 29.4336 32.7625 29.5 32.5359 29.6328C32.3132 29.7617 32.1355 29.9375 32.0027 30.1602C31.8738 30.3789 31.78 30.623 31.7214 30.8926C31.6667 31.1582 31.6394 31.4297 31.6394 31.707V31.9531C31.6394 32.2305 31.6667 32.5039 31.7214 32.7734C31.7761 33.043 31.8679 33.2871 31.9968 33.5059C32.1296 33.7246 32.3074 33.9004 32.53 34.0332C32.7566 34.1621 33.0378 34.2266 33.3738 34.2266ZM40.8562 33.916V30.6523C40.8562 30.4023 40.8054 30.1855 40.7039 30.002C40.6062 29.8145 40.4578 29.6699 40.2585 29.5684C40.0593 29.4668 39.8132 29.416 39.5203 29.416C39.2468 29.416 39.0066 29.4629 38.7996 29.5566C38.5964 29.6504 38.4363 29.7734 38.3191 29.9258C38.2058 30.0781 38.1492 30.2422 38.1492 30.418H37.0652C37.0652 30.1914 37.1238 29.9668 37.241 29.7441C37.3582 29.5215 37.5261 29.3203 37.7449 29.1406C37.9675 28.957 38.2332 28.8125 38.5417 28.707C38.8542 28.5977 39.2019 28.543 39.5847 28.543C40.0457 28.543 40.4519 28.6211 40.8035 28.7773C41.1589 28.9336 41.4363 29.1699 41.6355 29.4863C41.8386 29.7988 41.9402 30.1914 41.9402 30.6641V33.6172C41.9402 33.8281 41.9578 34.0527 41.9929 34.291C42.032 34.5293 42.0886 34.7344 42.1628 34.9062V35H41.032C40.9773 34.875 40.9343 34.709 40.9031 34.502C40.8718 34.291 40.8562 34.0957 40.8562 33.916ZM41.0437 31.1562L41.0554 31.918H39.9597C39.6511 31.918 39.3757 31.9434 39.1335 31.9941C38.8914 32.041 38.6882 32.1133 38.5242 32.2109C38.3601 32.3086 38.2351 32.4316 38.1492 32.5801C38.0632 32.7246 38.0203 32.8945 38.0203 33.0898C38.0203 33.2891 38.0652 33.4707 38.155 33.6348C38.2449 33.7988 38.3796 33.9297 38.5593 34.0273C38.7429 34.1211 38.9675 34.168 39.2332 34.168C39.5652 34.168 39.8582 34.0977 40.1121 33.957C40.366 33.8164 40.5671 33.6445 40.7156 33.4414C40.8679 33.2383 40.95 33.041 40.9617 32.8496L41.4246 33.3711C41.3972 33.5352 41.323 33.7168 41.2019 33.916C41.0808 34.1152 40.9187 34.3066 40.7156 34.4902C40.5164 34.6699 40.2781 34.8203 40.0007 34.9414C39.7273 35.0586 39.4187 35.1172 39.075 35.1172C38.6453 35.1172 38.2683 35.0332 37.9441 34.8652C37.6238 34.6973 37.3738 34.4727 37.1941 34.1914C37.0183 33.9062 36.9304 33.5879 36.9304 33.2363C36.9304 32.8965 36.9968 32.5977 37.1296 32.3398C37.2625 32.0781 37.4539 31.8613 37.7039 31.6895C37.9539 31.5137 38.2546 31.3809 38.6062 31.291C38.9578 31.2012 39.3503 31.1562 39.7839 31.1562H41.0437ZM46.2996 28.6602V29.4922H42.8718V28.6602H46.2996ZM44.032 27.1191H45.116V33.4297C45.116 33.6445 45.1492 33.8066 45.2156 33.916C45.282 34.0254 45.3679 34.0977 45.4734 34.1328C45.5789 34.168 45.6921 34.1855 45.8132 34.1855C45.9031 34.1855 45.9968 34.1777 46.0945 34.1621C46.196 34.1426 46.2722 34.127 46.323 34.1152L46.3289 35C46.2429 35.0273 46.1296 35.0527 45.989 35.0762C45.8523 35.1035 45.6863 35.1172 45.491 35.1172C45.2253 35.1172 44.9812 35.0645 44.7585 34.959C44.5359 34.8535 44.3582 34.6777 44.2253 34.4316C44.0964 34.1816 44.032 33.8457 44.032 33.4238V27.1191ZM48.7488 28.6602V35H47.6589V28.6602H48.7488ZM47.5769 26.9785C47.5769 26.8027 47.6296 26.6543 47.7351 26.5332C47.8445 26.4121 48.0046 26.3516 48.2156 26.3516C48.4226 26.3516 48.5808 26.4121 48.6902 26.5332C48.8035 26.6543 48.8601 26.8027 48.8601 26.9785C48.8601 27.1465 48.8035 27.291 48.6902 27.4121C48.5808 27.5293 48.4226 27.5879 48.2156 27.5879C48.0046 27.5879 47.8445 27.5293 47.7351 27.4121C47.6296 27.291 47.5769 27.1465 47.5769 26.9785ZM50.2019 31.9004V31.7656C50.2019 31.3086 50.2683 30.8848 50.4011 30.4941C50.5339 30.0996 50.7253 29.7578 50.9753 29.4688C51.2253 29.1758 51.5281 28.9492 51.8835 28.7891C52.239 28.625 52.6375 28.543 53.0789 28.543C53.5242 28.543 53.9246 28.625 54.28 28.7891C54.6394 28.9492 54.9441 29.1758 55.1941 29.4688C55.448 29.7578 55.6414 30.0996 55.7742 30.4941C55.907 30.8848 55.9734 31.3086 55.9734 31.7656V31.9004C55.9734 32.3574 55.907 32.7812 55.7742 33.1719C55.6414 33.5625 55.448 33.9043 55.1941 34.1973C54.9441 34.4863 54.6414 34.7129 54.2859 34.877C53.9343 35.0371 53.5359 35.1172 53.0906 35.1172C52.6453 35.1172 52.2449 35.0371 51.8894 34.877C51.5339 34.7129 51.2292 34.4863 50.9753 34.1973C50.7253 33.9043 50.5339 33.5625 50.4011 33.1719C50.2683 32.7812 50.2019 32.3574 50.2019 31.9004ZM51.2859 31.7656V31.9004C51.2859 32.2168 51.323 32.5156 51.3972 32.7969C51.4714 33.0742 51.5828 33.3203 51.7312 33.5352C51.8835 33.75 52.073 33.9199 52.2996 34.0449C52.5261 34.166 52.7898 34.2266 53.0906 34.2266C53.3875 34.2266 53.6472 34.166 53.8699 34.0449C54.0964 33.9199 54.2839 33.75 54.4324 33.5352C54.5808 33.3203 54.6921 33.0742 54.7664 32.7969C54.8445 32.5156 54.8835 32.2168 54.8835 31.9004V31.7656C54.8835 31.4531 54.8445 31.1582 54.7664 30.8809C54.6921 30.5996 54.5789 30.3516 54.4265 30.1367C54.2781 29.918 54.0906 29.7461 53.864 29.6211C53.6414 29.4961 53.3796 29.4336 53.0789 29.4336C52.782 29.4336 52.5203 29.4961 52.2937 29.6211C52.071 29.7461 51.8835 29.918 51.7312 30.1367C51.5828 30.3516 51.4714 30.5996 51.3972 30.8809C51.323 31.1582 51.2859 31.4531 51.2859 31.7656ZM58.4167 30.0137V35H57.3328V28.6602H58.3582L58.4167 30.0137ZM58.1589 31.5898L57.7078 31.5723C57.7117 31.1387 57.7761 30.7383 57.9011 30.3711C58.0261 30 58.2019 29.6777 58.4285 29.4043C58.655 29.1309 58.9246 28.9199 59.2371 28.7715C59.5535 28.6191 59.9031 28.543 60.2859 28.543C60.5984 28.543 60.8796 28.5859 61.1296 28.6719C61.3796 28.7539 61.5925 28.8867 61.7683 29.0703C61.948 29.2539 62.0847 29.4922 62.1785 29.7852C62.2722 30.0742 62.3191 30.4277 62.3191 30.8457V35H61.2292V30.834C61.2292 30.502 61.1804 30.2363 61.0828 30.0371C60.9851 29.834 60.8425 29.6875 60.655 29.5977C60.4675 29.5039 60.2371 29.457 59.9636 29.457C59.6941 29.457 59.448 29.5137 59.2253 29.627C59.0066 29.7402 58.8171 29.8965 58.657 30.0957C58.5007 30.2949 58.3777 30.5234 58.2878 30.7812C58.2019 31.0352 58.1589 31.3047 58.1589 31.5898ZM67.657 33.3184C67.657 33.1621 67.6218 33.0176 67.5515 32.8848C67.4851 32.748 67.3464 32.625 67.1355 32.5156C66.9285 32.4023 66.616 32.3047 66.198 32.2227C65.8464 32.1484 65.5281 32.0605 65.2429 31.959C64.9617 31.8574 64.7214 31.7344 64.5222 31.5898C64.3269 31.4453 64.1765 31.2754 64.071 31.0801C63.9656 30.8848 63.9128 30.6562 63.9128 30.3945C63.9128 30.1445 63.9675 29.9082 64.0769 29.6855C64.1902 29.4629 64.3484 29.2656 64.5515 29.0938C64.7585 28.9219 65.0066 28.7871 65.2957 28.6895C65.5847 28.5918 65.907 28.543 66.2625 28.543C66.7703 28.543 67.2039 28.6328 67.5632 28.8125C67.9226 28.9922 68.198 29.2324 68.3894 29.5332C68.5808 29.8301 68.6765 30.1602 68.6765 30.5234H67.5925C67.5925 30.3477 67.5398 30.1777 67.4343 30.0137C67.3328 29.8457 67.1824 29.707 66.9832 29.5977C66.7878 29.4883 66.5476 29.4336 66.2625 29.4336C65.9617 29.4336 65.7175 29.4805 65.53 29.5742C65.3464 29.6641 65.2117 29.7793 65.1257 29.9199C65.0437 30.0605 65.0027 30.209 65.0027 30.3652C65.0027 30.4824 65.0222 30.5879 65.0613 30.6816C65.1042 30.7715 65.1785 30.8555 65.2839 30.9336C65.3894 31.0078 65.5378 31.0781 65.7292 31.1445C65.9207 31.2109 66.1648 31.2773 66.4617 31.3438C66.9812 31.4609 67.4089 31.6016 67.7449 31.7656C68.0808 31.9297 68.3308 32.1309 68.4949 32.3691C68.6589 32.6074 68.741 32.8965 68.741 33.2363C68.741 33.5137 68.6824 33.7676 68.5652 33.998C68.4519 34.2285 68.2859 34.4277 68.0671 34.5957C67.8523 34.7598 67.5945 34.8887 67.2937 34.9824C66.9968 35.0723 66.6628 35.1172 66.2917 35.1172C65.7332 35.1172 65.2605 35.0176 64.8738 34.8184C64.4871 34.6191 64.1941 34.3613 63.9949 34.0449C63.7957 33.7285 63.696 33.3945 63.696 33.043H64.7859C64.8015 33.3398 64.8875 33.5762 65.0437 33.752C65.2 33.9238 65.3914 34.0469 65.6179 34.1211C65.8445 34.1914 66.0691 34.2266 66.2917 34.2266C66.5886 34.2266 66.8367 34.1875 67.0359 34.1094C67.239 34.0312 67.3933 33.9238 67.4988 33.7871C67.6042 33.6504 67.657 33.4941 67.657 33.3184Z" fill="#CCCCCC"/>
<path d="M32.1935 2.30768C31.7625 2.30768 31.4126 1.96307 31.4126 1.53846V0.769228C31.4126 0.344614 31.7625 0 32.1935 0C32.6246 0 32.9744 0.344614 32.9744 0.769228V1.53846C32.9744 1.96307 32.6246 2.30768 32.1935 2.30768Z" fill="#CCCCCC"/>
<path d="M39.0084 9.02099C38.5773 9.02099 38.2275 8.67638 38.2275 8.25177C38.2275 5.12562 35.6504 2.46179 32.483 2.3141C29.3117 2.16987 26.4844 4.57563 26.1857 7.68369C26.1677 7.86946 26.1588 8.06023 26.1588 8.25177C26.1588 8.67638 25.8089 9.02099 25.3778 9.02099C24.9468 9.02099 24.5969 8.67638 24.5969 8.25177C24.5969 8.01177 24.6082 7.77177 24.6309 7.53869C25.0069 3.62486 28.5667 0.592567 32.5568 0.777566C36.545 0.963334 39.7893 4.3164 39.7893 8.25177C39.7893 8.67676 39.4394 9.02099 39.0084 9.02099Z" fill="#CCCCCC"/>
<path d="M40.4723 14.2672C40.2798 14.2672 40.0865 14.1972 39.9354 14.0568C38.85 13.0445 38.2272 11.6191 38.2272 10.1464C38.2272 9.72181 38.577 9.3772 39.0081 9.3772C39.4392 9.3772 39.789 9.72181 39.789 10.1464C39.789 11.1983 40.2337 12.2168 41.0092 12.9395C41.3224 13.2314 41.336 13.7183 41.0397 14.0272C40.8862 14.1864 40.6793 14.2672 40.4723 14.2672Z" fill="#CCCCCC"/>
<path d="M23.9133 14.2672C23.706 14.2672 23.4994 14.1868 23.346 14.0268C23.0496 13.7183 23.0633 13.2314 23.3764 12.9395C24.1519 12.2168 24.5966 11.1987 24.5966 10.1464C24.5966 9.72181 24.9465 9.3772 25.3775 9.3772C25.8086 9.3772 26.1584 9.72181 26.1584 10.1464C26.1584 11.6199 25.5357 13.0453 24.4502 14.0568C24.2987 14.1972 24.1058 14.2672 23.9133 14.2672Z" fill="#CCCCCC"/>
<path d="M32.1933 19.9999C30.077 19.9999 28.2887 18.2384 28.2887 16.1537C28.2887 15.7291 28.6385 15.3845 29.0696 15.3845C29.5007 15.3845 29.8505 15.7291 29.8505 16.1537C29.8505 17.4045 30.9235 18.4614 32.1933 18.4614C33.4631 18.4614 34.536 17.4045 34.536 16.1537C34.536 15.7291 34.8859 15.3845 35.317 15.3845C35.748 15.3845 36.0979 15.7291 36.0979 16.1537C36.0979 18.2384 34.3096 19.9999 32.1933 19.9999Z" fill="#CCCCCC"/>
<path d="M24.987 16.9228C24.0355 16.9228 23.189 16.3498 22.8302 15.4628C22.4709 14.5748 22.6853 13.5844 23.3764 12.9398C23.6896 12.6475 24.1835 12.6609 24.4806 12.9694C24.777 13.2778 24.7637 13.7648 24.4506 14.0571C24.1085 14.3763 24.2342 14.7782 24.2811 14.8936C24.3276 15.0082 24.5162 15.3844 24.987 15.3844C25.4181 15.3844 25.768 15.729 25.768 16.1536C25.768 16.5782 25.4185 16.9228 24.987 16.9228Z" fill="#CCCCCC"/>
<path d="M39.399 16.9228C38.9679 16.9228 38.618 16.5782 38.618 16.1535C38.618 15.7289 38.9679 15.3843 39.399 15.3843C39.8702 15.3843 40.0592 15.0066 40.1061 14.8909C40.1525 14.7759 40.2779 14.3755 39.9358 14.0566C39.6227 13.7643 39.609 13.2778 39.9054 12.969C40.2021 12.6605 40.6961 12.647 41.0096 12.939C41.7007 13.5836 41.9155 14.5732 41.557 15.4597C41.1978 16.3485 40.3505 16.9228 39.399 16.9228Z" fill="#CCCCCC"/>
<path d="M25.3777 10.9157C24.9467 10.9157 24.5968 10.5711 24.5968 10.1465V8.25189C24.5968 7.82728 24.9467 7.48267 25.3777 7.48267C25.8088 7.48267 26.1586 7.82728 26.1586 8.25189V10.1465C26.1586 10.5711 25.8092 10.9157 25.3777 10.9157Z" fill="#CCCCCC"/>
<path d="M39.0085 10.9157C38.5774 10.9157 38.2275 10.5711 38.2275 10.1465V8.25189C38.2275 7.82728 38.5774 7.48267 39.0085 7.48267C39.4395 7.48267 39.7894 7.82728 39.7894 8.25189V10.1465C39.7894 10.5711 39.4395 10.9157 39.0085 10.9157Z" fill="#CCCCCC"/>
<path d="M39.3988 16.923H24.987C24.5559 16.923 24.2061 16.5784 24.2061 16.1537C24.2061 15.7291 24.5559 15.3845 24.987 15.3845H39.3984C39.8295 15.3845 40.1793 15.7291 40.1793 16.1537C40.1793 16.5784 39.8299 16.923 39.3988 16.923Z" fill="#CCCCCC"/>
<path d="M42.8417 4.44447C42.8417 6.62761 41.0907 8.38893 38.941 8.38893C36.7913 8.38893 35.0403 6.62761 35.0403 4.44447C35.0403 2.26132 36.7913 0.5 38.941 0.5C41.0907 0.5 42.8417 2.26132 42.8417 4.44447Z" fill="#E45D32" stroke="white"/>
</svg>
