<svg width="23" height="22" viewBox="0 0 23 22" fill="none" xmlns="http://www.w3.org/2000/svg">
<path d="M15.775 18.25L19.25 14.8L18.2 13.75L15.775 16.125L14.8 15.15L13.75 16.225L15.775 18.25ZM4.5 7H16.5V5H4.5V7ZM16.5 21C15.1167 21 13.9375 20.5125 12.9625 19.5375C11.9875 18.5625 11.5 17.3833 11.5 16C11.5 14.6167 11.9875 13.4375 12.9625 12.4625C13.9375 11.4875 15.1167 11 16.5 11C17.8833 11 19.0625 11.4875 20.0375 12.4625C21.0125 13.4375 21.5 14.6167 21.5 16C21.5 17.3833 21.0125 18.5625 20.0375 19.5375C19.0625 20.5125 17.8833 21 16.5 21ZM1.5 20V3C1.5 2.45 1.69583 1.97917 2.0875 1.5875C2.47917 1.19583 2.95 1 3.5 1H17.5C18.05 1 18.5208 1.19583 18.9125 1.5875C19.3042 1.97917 19.5 2.45 19.5 3V9.675C19.1833 9.525 18.8583 9.4 18.525 9.3C18.1917 9.2 17.85 9.125 17.5 9.075V3H3.5V17.05H9.575C9.65833 17.5667 9.7875 18.0583 9.9625 18.525C10.1375 18.9917 10.3667 19.4333 10.65 19.85L10.5 20L9 18.5L7.5 20L6 18.5L4.5 20L3 18.5L1.5 20ZM4.5 15H9.575C9.625 14.65 9.7 14.3083 9.8 13.975C9.9 13.6417 10.025 13.3167 10.175 13H4.5V15ZM4.5 11H11.6C12.2333 10.3833 12.9708 9.89583 13.8125 9.5375C14.6542 9.17917 15.55 9 16.5 9H4.5V11Z" fill="#8CACFF"/>
</svg>
