<svg width="24" height="25" viewBox="0 0 24 25" fill="none" xmlns="http://www.w3.org/2000/svg">
<path d="M18.5 14.31L18.51 14.299M7.5 14.31L7.51 14.299M4 18.3V10.3C4 9.76955 4.21071 9.26085 4.58579 8.88577C4.96086 8.5107 5.46957 8.29999 6 8.29999H20C20.5304 8.29999 21.0391 8.5107 21.4142 8.88577C21.7893 9.26085 22 9.76955 22 10.3V18.3C22 18.8304 21.7893 19.3391 21.4142 19.7142C21.0391 20.0893 20.5304 20.3 20 20.3H6C5.46957 20.3 4.96086 20.0893 4.58579 19.7142C4.21071 19.3391 4 18.8304 4 18.3Z" stroke="#5A595B" stroke-width="1.5" stroke-linecap="round" stroke-linejoin="round"/>
<path d="M4 16.3H3C2.46957 16.3 1.96086 16.0893 1.58579 15.7142C1.21071 15.3391 1 14.8304 1 14.3V6.29999C1 5.76955 1.21071 5.26085 1.58579 4.88577C1.96086 4.5107 2.46957 4.29999 3 4.29999H17C17.5304 4.29999 18.0391 4.5107 18.4142 4.88577C18.7893 5.26085 19 5.76955 19 6.29999V8.29999M13 16.3C12.4696 16.3 11.9609 16.0893 11.5858 15.7142C11.2107 15.3391 11 14.8304 11 14.3C11 13.7696 11.2107 13.2608 11.5858 12.8858C11.9609 12.5107 12.4696 12.3 13 12.3C13.5304 12.3 14.0391 12.5107 14.4142 12.8858C14.7893 13.2608 15 13.7696 15 14.3C15 14.8304 14.7893 15.3391 14.4142 15.7142C14.0391 16.0893 13.5304 16.3 13 16.3Z" stroke="#5A595B" stroke-width="1.5" stroke-linecap="round" stroke-linejoin="round"/>
</svg>
