<svg width="18" height="16" viewBox="0 0 18 16" fill="none" xmlns="http://www.w3.org/2000/svg">
<circle cx="8.84663" cy="2.95832" r="2.35832" stroke="#2354C5" stroke-width="1.2" stroke-linecap="round"/>
<path d="M10.6095 1.63125C10.8134 1.27797 11.1176 0.993119 11.4834 0.812699C11.8493 0.63228 12.2604 0.5644 12.6649 0.617645C13.0693 0.67089 13.4488 0.842867 13.7555 1.11183C14.0622 1.38079 14.2823 1.73466 14.3879 2.12868C14.4934 2.5227 14.4798 2.93918 14.3487 3.32546C14.2176 3.71173 13.9748 4.05045 13.6512 4.29878C13.3276 4.5471 12.9376 4.69389 12.5305 4.72057C12.1235 4.74725 11.7177 4.65262 11.3644 4.44866" stroke="#2354C5" stroke-width="1.2"/>
<path d="M7.08449 1.63125C6.88053 1.27797 6.57639 0.993119 6.21054 0.812699C5.84469 0.63228 5.43355 0.5644 5.02911 0.617645C4.62468 0.67089 4.24512 0.842867 3.93843 1.11183C3.63174 1.38079 3.41169 1.73466 3.30611 2.12868C3.20053 2.5227 3.21417 2.93918 3.34529 3.32546C3.47641 3.71173 3.71913 4.05045 4.04276 4.29878C4.36639 4.5471 4.75638 4.69389 5.16343 4.72057C5.57048 4.74725 5.9763 4.65262 6.32957 4.44866" stroke="#2354C5" stroke-width="1.2"/>
<path d="M8.84353 7.98682C13.2993 7.98682 14.3995 11.6779 14.6711 13.5007C14.7525 14.047 14.3125 14.4951 13.7602 14.4951H3.92688C3.3746 14.4951 2.93454 14.047 3.01595 13.5007C3.2876 11.6779 4.38778 7.98682 8.84353 7.98682Z" stroke="#2354C5" stroke-width="1.2" stroke-linecap="round"/>
<path d="M16.6584 11.211L17.2415 11.0696L17.2415 11.0696L16.6584 11.211ZM10.0007 8.11044L9.55766 7.70586L8.81212 8.52232L9.903 8.70242L10.0007 8.11044ZM14.3848 12.2958L13.8085 12.4626L13.9339 12.8958H14.3848V12.2958ZM12.5806 7.54946C13.6702 7.54946 14.4319 8.08902 14.9911 8.84966C15.5627 9.62713 15.8938 10.6042 16.0753 11.3525L17.2415 11.0696C17.0439 10.2552 16.6657 9.1015 15.9579 8.13885C15.2378 7.15936 14.1501 6.34946 12.5806 6.34946V7.54946ZM10.4438 8.51502C10.9687 7.94022 11.6512 7.54946 12.5806 7.54946V6.34946C11.2578 6.34946 10.2689 6.92692 9.55766 7.70586L10.4438 8.51502ZM9.903 8.70242C12.3309 9.10325 13.3599 10.9128 13.8085 12.4626L14.9612 12.129C14.4536 10.3753 13.1862 8.02823 10.0985 7.51845L9.903 8.70242ZM15.7527 11.6958H14.3848V12.8958H15.7527V11.6958ZM16.0753 11.3525C16.0974 11.4436 16.0747 11.5193 16.0231 11.5798C15.9681 11.6443 15.8742 11.6958 15.7527 11.6958V12.8958C16.681 12.8958 17.4845 12.0711 17.2415 11.0696L16.0753 11.3525Z" fill="#2354C5"/>
<path d="M7.68423 8.11167L7.78267 8.70354L8.87127 8.52248L8.12746 7.70726L7.68423 8.11167ZM1.0254 11.211L1.60849 11.3525L1.0254 11.211ZM3.30755 12.2958V12.8958H3.75852L3.8839 12.4626L3.30755 12.2958ZM5.1032 7.54946C6.03317 7.54946 6.716 7.94068 7.241 8.51608L8.12746 7.70726C7.41612 6.92763 6.42691 6.34946 5.1032 6.34946V7.54946ZM1.60849 11.3525C1.79003 10.6042 2.12114 9.62713 2.69275 8.84966C3.25198 8.08902 4.01364 7.54946 5.1032 7.54946V6.34946C3.53375 6.34946 2.44606 7.15936 1.72593 8.13884C1.01817 9.10149 0.639881 10.2552 0.442315 11.0696L1.60849 11.3525ZM1.93111 11.6958C1.80959 11.6958 1.71569 11.6443 1.66071 11.5798C1.60914 11.5193 1.58639 11.4436 1.60849 11.3525L0.442315 11.0696C0.199341 12.0711 1.00277 12.8958 1.93111 12.8958V11.6958ZM3.30755 11.6958H1.93111V12.8958H3.30755V11.6958ZM3.8839 12.4626C4.33208 10.9142 5.35975 9.10653 7.78267 8.70354L7.58578 7.5198C4.50381 8.03241 3.2383 10.377 2.73121 12.129L3.8839 12.4626Z" fill="#2354C5"/>
</svg>
