<svg width="36" height="41" viewBox="0 0 36 41" fill="none" xmlns="http://www.w3.org/2000/svg">
<path d="M4.65576 33.6543H2.37646V32.7344H4.65576C5.09717 32.7344 5.45459 32.6641 5.72803 32.5234C6.00146 32.3828 6.20068 32.1875 6.32568 31.9375C6.45459 31.6875 6.51904 31.4023 6.51904 31.082C6.51904 30.7891 6.45459 30.5137 6.32568 30.2559C6.20068 29.998 6.00146 29.791 5.72803 29.6348C5.45459 29.4746 5.09717 29.3945 4.65576 29.3945H2.64014V37H1.50928V28.4688H4.65576C5.30029 28.4688 5.84521 28.5801 6.29053 28.8027C6.73584 29.0254 7.07373 29.334 7.3042 29.7285C7.53467 30.1191 7.6499 30.5664 7.6499 31.0703C7.6499 31.6172 7.53467 32.084 7.3042 32.4707C7.07373 32.8574 6.73584 33.1523 6.29053 33.3555C5.84521 33.5547 5.30029 33.6543 4.65576 33.6543ZM9.99951 31.6562V37H8.91553V30.6602H9.97021L9.99951 31.6562ZM11.98 30.625L11.9741 31.6328C11.8843 31.6133 11.7983 31.6016 11.7163 31.5977C11.6382 31.5898 11.5483 31.5859 11.4468 31.5859C11.1968 31.5859 10.9761 31.625 10.7847 31.7031C10.5933 31.7812 10.4312 31.8906 10.2983 32.0312C10.1655 32.1719 10.0601 32.3398 9.98193 32.5352C9.90771 32.7266 9.85889 32.9375 9.83545 33.168L9.53076 33.3438C9.53076 32.9609 9.56787 32.6016 9.64209 32.2656C9.72021 31.9297 9.83936 31.6328 9.99951 31.375C10.1597 31.1133 10.3628 30.9102 10.6089 30.7656C10.8589 30.6172 11.1558 30.543 11.4995 30.543C11.5776 30.543 11.6675 30.5527 11.769 30.5723C11.8706 30.5879 11.9409 30.6055 11.98 30.625ZM12.5776 33.9004V33.7656C12.5776 33.3086 12.644 32.8848 12.7769 32.4941C12.9097 32.0996 13.1011 31.7578 13.3511 31.4688C13.6011 31.1758 13.9038 30.9492 14.2593 30.7891C14.6147 30.625 15.0132 30.543 15.4546 30.543C15.8999 30.543 16.3003 30.625 16.6558 30.7891C17.0151 30.9492 17.3198 31.1758 17.5698 31.4688C17.8237 31.7578 18.0171 32.0996 18.1499 32.4941C18.2827 32.8848 18.3491 33.3086 18.3491 33.7656V33.9004C18.3491 34.3574 18.2827 34.7812 18.1499 35.1719C18.0171 35.5625 17.8237 35.9043 17.5698 36.1973C17.3198 36.4863 17.0171 36.7129 16.6616 36.877C16.3101 37.0371 15.9116 37.1172 15.4663 37.1172C15.021 37.1172 14.6206 37.0371 14.2651 36.877C13.9097 36.7129 13.605 36.4863 13.3511 36.1973C13.1011 35.9043 12.9097 35.5625 12.7769 35.1719C12.644 34.7812 12.5776 34.3574 12.5776 33.9004ZM13.6616 33.7656V33.9004C13.6616 34.2168 13.6987 34.5156 13.7729 34.7969C13.8472 35.0742 13.9585 35.3203 14.1069 35.5352C14.2593 35.75 14.4487 35.9199 14.6753 36.0449C14.9019 36.166 15.1655 36.2266 15.4663 36.2266C15.7632 36.2266 16.0229 36.166 16.2456 36.0449C16.4722 35.9199 16.6597 35.75 16.8081 35.5352C16.9565 35.3203 17.0679 35.0742 17.1421 34.7969C17.2202 34.5156 17.2593 34.2168 17.2593 33.9004V33.7656C17.2593 33.4531 17.2202 33.1582 17.1421 32.8809C17.0679 32.5996 16.9546 32.3516 16.8022 32.1367C16.6538 31.918 16.4663 31.7461 16.2397 31.6211C16.0171 31.4961 15.7554 31.4336 15.4546 31.4336C15.1577 31.4336 14.896 31.4961 14.6694 31.6211C14.4468 31.7461 14.2593 31.918 14.1069 32.1367C13.9585 32.3516 13.8472 32.5996 13.7729 32.8809C13.6987 33.1582 13.6616 33.4531 13.6616 33.7656ZM21.1558 37H20.0718V30.1094C20.0718 29.6289 20.1655 29.2227 20.353 28.8906C20.5405 28.5586 20.8081 28.3066 21.1558 28.1348C21.5034 27.9629 21.9155 27.877 22.3921 27.877C22.6733 27.877 22.9487 27.9121 23.2183 27.9824C23.4878 28.0488 23.7651 28.1328 24.0503 28.2344L23.8687 29.1484C23.689 29.0781 23.48 29.0117 23.2417 28.9492C23.0073 28.8828 22.7495 28.8496 22.4683 28.8496C22.0034 28.8496 21.6675 28.9551 21.4604 29.166C21.2573 29.373 21.1558 29.6875 21.1558 30.1094V37ZM22.4507 30.6602V31.4922H19.0698V30.6602H22.4507ZM24.5835 30.6602V37H23.4995V30.6602H24.5835ZM27.5425 28V37H26.4526V28H27.5425ZM31.9136 37.1172C31.4722 37.1172 31.0718 37.043 30.7124 36.8945C30.3569 36.7422 30.0503 36.5293 29.7925 36.2559C29.5386 35.9824 29.3433 35.6582 29.2065 35.2832C29.0698 34.9082 29.0015 34.498 29.0015 34.0527V33.8066C29.0015 33.291 29.0776 32.832 29.23 32.4297C29.3823 32.0234 29.5894 31.6797 29.8511 31.3984C30.1128 31.1172 30.4097 30.9043 30.7417 30.7598C31.0737 30.6152 31.4175 30.543 31.7729 30.543C32.2261 30.543 32.6167 30.6211 32.9448 30.7773C33.2769 30.9336 33.5483 31.1523 33.7593 31.4336C33.9702 31.7109 34.1265 32.0391 34.228 32.418C34.3296 32.793 34.3804 33.2031 34.3804 33.6484V34.1348H29.646V33.25H33.2964V33.168C33.2808 32.8867 33.2222 32.6133 33.1206 32.3477C33.0229 32.082 32.8667 31.8633 32.6519 31.6914C32.437 31.5195 32.144 31.4336 31.7729 31.4336C31.5269 31.4336 31.3003 31.4863 31.0933 31.5918C30.8862 31.6934 30.7085 31.8457 30.5601 32.0488C30.4116 32.252 30.2964 32.5 30.2144 32.793C30.1323 33.0859 30.0913 33.4238 30.0913 33.8066V34.0527C30.0913 34.3535 30.1323 34.6367 30.2144 34.9023C30.3003 35.1641 30.4233 35.3945 30.5835 35.5938C30.7476 35.793 30.9448 35.9492 31.1753 36.0625C31.4097 36.1758 31.6753 36.2324 31.9722 36.2324C32.355 36.2324 32.6792 36.1543 32.9448 35.998C33.2104 35.8418 33.4429 35.6328 33.6421 35.3711L34.2983 35.8926C34.1616 36.0996 33.9878 36.2969 33.7769 36.4844C33.5659 36.6719 33.3062 36.8242 32.9976 36.9414C32.6929 37.0586 32.3315 37.1172 31.9136 37.1172Z" fill="#CCCCCC"/>
<path d="M17.1223 0C20.1521 0 22.8945 1.23177 24.878 3.22266C26.8634 5.21354 28.0917 7.96354 28.0917 11C28.0917 14.0382 26.8634 16.7882 24.878 18.7773C22.8927 20.7682 20.1503 22 17.1223 22C14.0943 22 11.3501 20.7682 9.36654 18.7773C7.38118 16.7882 6.15283 14.0382 6.15283 11C6.15283 7.96175 7.38118 5.21175 9.36654 3.22266C11.3501 1.23177 14.0925 0 17.1223 0ZM14.4531 15.5815C15.5244 17.8213 18.772 17.9001 19.7986 15.5941C19.5183 15.3094 19.3112 15.0068 19.1059 14.7043C19.0719 14.6541 19.038 14.6058 19.0041 14.5557C18.5095 14.9495 17.9079 15.2002 17.1241 15.1984C16.2796 15.1966 15.644 14.8726 15.1226 14.3945C15.0923 14.3659 15.0602 14.3372 15.0298 14.3068C14.9548 14.5145 14.8602 14.7633 14.7584 14.9961C14.6602 15.2199 14.5549 15.4294 14.4531 15.5815ZM22.6963 19.3055L22.9391 16.7131C22.041 16.5376 21.0787 16.3478 20.0843 15.7731C19.3397 18.2599 15.3387 18.5553 14.2121 15.8376C13.3194 16.2887 12.4106 16.5466 11.3751 16.7059L11.7268 19.4219C13.2819 20.4263 15.1351 21.0099 17.1241 21.0099C19.1862 21.0099 21.1037 20.3815 22.6963 19.3055ZM9.10944 16.9709L9.15229 16.9458C10.2164 16.3514 12.9855 16.1545 14.1353 15.3506C14.2192 15.2235 14.3103 15.0391 14.3978 14.8385C14.5299 14.536 14.6495 14.2065 14.7263 13.981C14.4049 13.6014 14.13 13.1735 13.8657 12.751L12.9945 11.3617C12.6767 10.8854 12.5106 10.4504 12.4999 10.0923C12.4945 9.92399 12.5231 9.77181 12.5856 9.63753C12.6499 9.49609 12.7499 9.37972 12.8855 9.28841C12.948 9.24544 13.0195 9.20964 13.0962 9.18099C13.0391 8.42725 13.0195 7.47835 13.0552 6.68343C13.073 6.49544 13.1105 6.30566 13.1623 6.11768C13.3855 5.32096 13.9425 4.67822 14.6334 4.23779C15.0137 3.9943 15.4315 3.81169 15.8672 3.68815C16.1439 3.60938 15.6315 2.72314 15.9171 2.69271C17.3008 2.54948 19.5379 3.81706 20.5038 4.86442C20.9877 5.389 21.2912 6.08545 21.3572 7.0057L21.3037 9.2723C21.5447 9.3457 21.7 9.49967 21.7625 9.74854C21.8322 10.0243 21.7572 10.4128 21.5233 10.9409C21.5197 10.9499 21.5144 10.9606 21.509 10.9696L20.5163 12.6095C20.1521 13.2111 19.7807 13.8162 19.2987 14.2925C19.3415 14.3551 19.3862 14.4178 19.429 14.4823C19.6254 14.7705 19.8236 15.0605 20.0771 15.3184C20.086 15.3273 20.0932 15.3363 20.0985 15.3452C21.2412 16.1545 24.0228 16.3514 25.0905 16.9476L25.1333 16.9727C26.3706 15.3058 27.1026 13.2397 27.1026 11.0018C27.1026 8.23747 25.985 5.73454 24.1782 3.92448C22.3749 2.11084 19.8789 0.990072 17.1223 0.990072C14.3656 0.990072 11.8697 2.11084 10.0646 3.92269C8.25781 5.73275 7.14015 8.23568 7.14015 11C7.14015 13.238 7.87217 15.304 9.10944 16.9709ZM13.5997 9.58561C13.4069 9.59277 13.2605 9.63395 13.1605 9.7002C13.1034 9.73779 13.0623 9.78792 13.0355 9.84522C13.0052 9.90967 12.9927 9.98844 12.9945 10.0798C13.0016 10.3447 13.1409 10.6921 13.4087 11.0931L13.4122 11.0985L14.2835 12.4878C14.6334 13.0446 14.9995 13.6121 15.4547 14.0293C15.8921 14.4303 16.4224 14.7025 17.1259 14.7043C17.8864 14.7061 18.4417 14.4232 18.8934 14.0007C19.363 13.5602 19.7325 12.9569 20.0985 12.3535L21.0805 10.7332C21.2626 10.3143 21.3305 10.035 21.2876 9.87028C21.2626 9.77181 21.1555 9.72526 20.9716 9.71452C20.9323 9.71273 20.893 9.71273 20.852 9.71273C20.8091 9.71452 20.7627 9.71631 20.7145 9.72168C20.6877 9.72347 20.6627 9.72168 20.6395 9.71631C20.552 9.72168 20.4628 9.71452 20.3699 9.70199L20.7056 8.21061C18.2132 8.60449 16.3474 6.74788 13.7122 7.84001L13.9014 9.59815C13.7925 9.60352 13.6925 9.59994 13.5997 9.58561Z" fill="#CCCCCC"/>
</svg>
