<svg width="53" height="40" viewBox="0 0 53 40" fill="none" xmlns="http://www.w3.org/2000/svg">
<path d="M1.91431 27.4688H4.73853C5.37915 27.4688 5.92017 27.5664 6.36157 27.7617C6.80688 27.957 7.14478 28.2461 7.37524 28.6289C7.60962 29.0078 7.72681 29.4746 7.72681 30.0293C7.72681 30.4199 7.64673 30.7773 7.48657 31.1016C7.33032 31.4219 7.10376 31.6953 6.80688 31.9219C6.51392 32.1445 6.16235 32.3105 5.7522 32.4199L5.43579 32.543H2.78149L2.76978 31.623H4.77368C5.17993 31.623 5.51782 31.5527 5.78735 31.4121C6.05688 31.2676 6.26001 31.0742 6.39673 30.832C6.53345 30.5898 6.60181 30.3223 6.60181 30.0293C6.60181 29.7012 6.53735 29.4141 6.40845 29.168C6.27954 28.9219 6.07642 28.7324 5.79907 28.5996C5.52563 28.4629 5.17212 28.3945 4.73853 28.3945H3.04517V36H1.91431V27.4688ZM6.90063 36L4.82642 32.1328L6.00415 32.127L8.10767 35.9297V36H6.90063ZM11.7756 36.1172C11.3342 36.1172 10.9338 36.043 10.5745 35.8945C10.219 35.7422 9.91235 35.5293 9.65454 35.2559C9.40063 34.9824 9.20532 34.6582 9.0686 34.2832C8.93188 33.9082 8.86353 33.498 8.86353 33.0527V32.8066C8.86353 32.291 8.9397 31.832 9.09204 31.4297C9.24438 31.0234 9.45142 30.6797 9.71313 30.3984C9.97485 30.1172 10.2717 29.9043 10.6038 29.7598C10.9358 29.6152 11.2795 29.543 11.635 29.543C12.0881 29.543 12.4788 29.6211 12.8069 29.7773C13.1389 29.9336 13.4104 30.1523 13.6213 30.4336C13.8323 30.7109 13.9885 31.0391 14.0901 31.418C14.1917 31.793 14.2424 32.2031 14.2424 32.6484V33.1348H9.50806V32.25H13.1584V32.168C13.1428 31.8867 13.0842 31.6133 12.9827 31.3477C12.885 31.082 12.7288 30.8633 12.5139 30.6914C12.2991 30.5195 12.0061 30.4336 11.635 30.4336C11.3889 30.4336 11.1624 30.4863 10.9553 30.5918C10.7483 30.6934 10.5706 30.8457 10.4221 31.0488C10.2737 31.252 10.1584 31.5 10.0764 31.793C9.99438 32.0859 9.95337 32.4238 9.95337 32.8066V33.0527C9.95337 33.3535 9.99438 33.6367 10.0764 33.9023C10.1624 34.1641 10.2854 34.3945 10.4456 34.5938C10.6096 34.793 10.8069 34.9492 11.0374 35.0625C11.2717 35.1758 11.5374 35.2324 11.8342 35.2324C12.217 35.2324 12.5413 35.1543 12.8069 34.998C13.0725 34.8418 13.3049 34.6328 13.5042 34.3711L14.1604 34.8926C14.0237 35.0996 13.8499 35.2969 13.6389 35.4844C13.428 35.6719 13.1682 35.8242 12.8596 35.9414C12.5549 36.0586 12.1936 36.1172 11.7756 36.1172ZM16.5862 30.9199V36H15.4963V29.6602H16.5276L16.5862 30.9199ZM16.3635 32.5898L15.8596 32.5723C15.8635 32.1387 15.9202 31.7383 16.0295 31.3711C16.1389 31 16.301 30.6777 16.5159 30.4043C16.7307 30.1309 16.9983 29.9199 17.3186 29.7715C17.6389 29.6191 18.01 29.543 18.4319 29.543C18.7288 29.543 19.0022 29.5859 19.2522 29.6719C19.5022 29.7539 19.719 29.8848 19.9026 30.0645C20.0862 30.2441 20.2288 30.4746 20.3303 30.7559C20.4319 31.0371 20.4827 31.377 20.4827 31.7754V36H19.3987V31.8281C19.3987 31.4961 19.342 31.2305 19.2288 31.0312C19.1194 30.832 18.9631 30.6875 18.76 30.5977C18.5569 30.5039 18.3186 30.457 18.0452 30.457C17.7249 30.457 17.4573 30.5137 17.2424 30.627C17.0276 30.7402 16.8557 30.8965 16.7268 31.0957C16.5979 31.2949 16.5042 31.5234 16.4456 31.7812C16.3909 32.0352 16.3635 32.3047 16.3635 32.5898ZM20.4709 31.9922L19.7444 32.2148C19.7483 31.8672 19.8049 31.5332 19.9143 31.2129C20.0276 30.8926 20.1897 30.6074 20.4006 30.3574C20.6155 30.1074 20.8792 29.9102 21.1917 29.7656C21.5042 29.6172 21.8616 29.543 22.2639 29.543C22.6038 29.543 22.9045 29.5879 23.1663 29.6777C23.4319 29.7676 23.6545 29.9062 23.8342 30.0938C24.0178 30.2773 24.1565 30.5137 24.2502 30.8027C24.344 31.0918 24.3909 31.4355 24.3909 31.834V36H23.301V31.8223C23.301 31.4668 23.2444 31.1914 23.1311 30.9961C23.0217 30.7969 22.8655 30.6582 22.6624 30.5801C22.4631 30.498 22.2249 30.457 21.9475 30.457C21.7092 30.457 21.4983 30.498 21.3147 30.5801C21.1311 30.6621 20.9768 30.7754 20.8518 30.9199C20.7268 31.0605 20.6311 31.2227 20.5647 31.4062C20.5022 31.5898 20.4709 31.7852 20.4709 31.9922ZM27.2092 29.6602V36H26.1194V29.6602H27.2092ZM26.0374 27.9785C26.0374 27.8027 26.0901 27.6543 26.1956 27.5332C26.3049 27.4121 26.4651 27.3516 26.676 27.3516C26.8831 27.3516 27.0413 27.4121 27.1506 27.5332C27.2639 27.6543 27.3206 27.8027 27.3206 27.9785C27.3206 28.1465 27.2639 28.291 27.1506 28.4121C27.0413 28.5293 26.8831 28.5879 26.676 28.5879C26.4651 28.5879 26.3049 28.5293 26.1956 28.4121C26.0901 28.291 26.0374 28.1465 26.0374 27.9785ZM30.0334 31.0137V36H28.9495V29.6602H29.9749L30.0334 31.0137ZM29.7756 32.5898L29.3245 32.5723C29.3284 32.1387 29.3928 31.7383 29.5178 31.3711C29.6428 31 29.8186 30.6777 30.0452 30.4043C30.2717 30.1309 30.5413 29.9199 30.8538 29.7715C31.1702 29.6191 31.5198 29.543 31.9026 29.543C32.2151 29.543 32.4963 29.5859 32.7463 29.6719C32.9963 29.7539 33.2092 29.8867 33.385 30.0703C33.5647 30.2539 33.7014 30.4922 33.7952 30.7852C33.8889 31.0742 33.9358 31.4277 33.9358 31.8457V36H32.8459V31.834C32.8459 31.502 32.7971 31.2363 32.6995 31.0371C32.6018 30.834 32.4592 30.6875 32.2717 30.5977C32.0842 30.5039 31.8538 30.457 31.5803 30.457C31.3108 30.457 31.0647 30.5137 30.842 30.627C30.6233 30.7402 30.4338 30.8965 30.2737 31.0957C30.1174 31.2949 29.9944 31.5234 29.9045 31.7812C29.8186 32.0352 29.7756 32.3047 29.7756 32.5898ZM39.5784 34.7695V27H40.6682V36H39.6721L39.5784 34.7695ZM35.3127 32.9004V32.7773C35.3127 32.293 35.3713 31.8535 35.4885 31.459C35.6096 31.0605 35.7795 30.7188 35.9983 30.4336C36.2209 30.1484 36.4846 29.9297 36.7893 29.7773C37.0979 29.6211 37.4417 29.543 37.8206 29.543C38.219 29.543 38.5667 29.6133 38.8635 29.7539C39.1643 29.8906 39.4182 30.0918 39.6252 30.3574C39.8362 30.6191 40.0022 30.9355 40.1233 31.3066C40.2444 31.6777 40.3284 32.0977 40.3752 32.5664V33.1055C40.3323 33.5703 40.2483 33.9883 40.1233 34.3594C40.0022 34.7305 39.8362 35.0469 39.6252 35.3086C39.4182 35.5703 39.1643 35.7715 38.8635 35.9121C38.5627 36.0488 38.2112 36.1172 37.8088 36.1172C37.4377 36.1172 37.0979 36.0371 36.7893 35.877C36.4846 35.7168 36.2209 35.4922 35.9983 35.2031C35.7795 34.9141 35.6096 34.5742 35.4885 34.1836C35.3713 33.7891 35.3127 33.3613 35.3127 32.9004ZM36.4026 32.7773V32.9004C36.4026 33.2168 36.4338 33.5137 36.4963 33.791C36.5627 34.0684 36.6643 34.3125 36.801 34.5234C36.9377 34.7344 37.1116 34.9004 37.3225 35.0215C37.5334 35.1387 37.7854 35.1973 38.0784 35.1973C38.4377 35.1973 38.7327 35.1211 38.9631 34.9688C39.1975 34.8164 39.385 34.6152 39.5256 34.3652C39.6663 34.1152 39.7756 33.8438 39.8538 33.5508V32.1387C39.8069 31.9238 39.7385 31.7168 39.6487 31.5176C39.5627 31.3145 39.4495 31.1348 39.3088 30.9785C39.1721 30.8184 39.0022 30.6914 38.7991 30.5977C38.5999 30.5039 38.3635 30.457 38.0901 30.457C37.7932 30.457 37.5374 30.5195 37.3225 30.6445C37.1116 30.7656 36.9377 30.9336 36.801 31.1484C36.6643 31.3594 36.5627 31.6055 36.4963 31.8867C36.4338 32.1641 36.4026 32.4609 36.4026 32.7773ZM44.9866 36.1172C44.5452 36.1172 44.1448 36.043 43.7854 35.8945C43.4299 35.7422 43.1233 35.5293 42.8655 35.2559C42.6116 34.9824 42.4163 34.6582 42.2795 34.2832C42.1428 33.9082 42.0745 33.498 42.0745 33.0527V32.8066C42.0745 32.291 42.1506 31.832 42.303 31.4297C42.4553 31.0234 42.6624 30.6797 42.9241 30.3984C43.1858 30.1172 43.4827 29.9043 43.8147 29.7598C44.1467 29.6152 44.4905 29.543 44.8459 29.543C45.2991 29.543 45.6897 29.6211 46.0178 29.7773C46.3499 29.9336 46.6213 30.1523 46.8323 30.4336C47.0432 30.7109 47.1995 31.0391 47.301 31.418C47.4026 31.793 47.4534 32.2031 47.4534 32.6484V33.1348H42.719V32.25H46.3694V32.168C46.3538 31.8867 46.2952 31.6133 46.1936 31.3477C46.0959 31.082 45.9397 30.8633 45.7249 30.6914C45.51 30.5195 45.217 30.4336 44.8459 30.4336C44.5999 30.4336 44.3733 30.4863 44.1663 30.5918C43.9592 30.6934 43.7815 30.8457 43.6331 31.0488C43.4846 31.252 43.3694 31.5 43.2874 31.793C43.2053 32.0859 43.1643 32.4238 43.1643 32.8066V33.0527C43.1643 33.3535 43.2053 33.6367 43.2874 33.9023C43.3733 34.1641 43.4963 34.3945 43.6565 34.5938C43.8206 34.793 44.0178 34.9492 44.2483 35.0625C44.4827 35.1758 44.7483 35.2324 45.0452 35.2324C45.428 35.2324 45.7522 35.1543 46.0178 34.998C46.2834 34.8418 46.5159 34.6328 46.7151 34.3711L47.3713 34.8926C47.2346 35.0996 47.0608 35.2969 46.8499 35.4844C46.6389 35.6719 46.3792 35.8242 46.0706 35.9414C45.7659 36.0586 45.4045 36.1172 44.9866 36.1172ZM49.803 30.6562V36H48.719V29.6602H49.7737L49.803 30.6562ZM51.7834 29.625L51.7776 30.6328C51.6877 30.6133 51.6018 30.6016 51.5198 30.5977C51.4417 30.5898 51.3518 30.5859 51.2502 30.5859C51.0002 30.5859 50.7795 30.625 50.5881 30.7031C50.3967 30.7812 50.2346 30.8906 50.1018 31.0312C49.969 31.1719 49.8635 31.3398 49.7854 31.5352C49.7112 31.7266 49.6624 31.9375 49.6389 32.168L49.3342 32.3438C49.3342 31.9609 49.3713 31.6016 49.4456 31.2656C49.5237 30.9297 49.6428 30.6328 49.803 30.375C49.9631 30.1133 50.1663 29.9102 50.4124 29.7656C50.6624 29.6172 50.9592 29.543 51.303 29.543C51.3811 29.543 51.4709 29.5527 51.5725 29.5723C51.6741 29.5879 51.7444 29.6055 51.7834 29.625Z" fill="#CCCCCC"/>
<path d="M27.3693 22C32.8768 22 37.3415 17.5228 37.3415 12C37.3415 6.47715 32.8768 2 27.3693 2C21.8618 2 17.3971 6.47715 17.3971 12C17.3971 17.5228 21.8618 22 27.3693 22Z" stroke="#CCCCCC" stroke-width="2.2" stroke-linecap="round" stroke-linejoin="round"/>
<path d="M27.3694 6V12L31.3583 14" stroke="#CCCCCC" stroke-width="2" stroke-linecap="round" stroke-linejoin="round"/>
</svg>
