<svg width="28" height="28" viewBox="0 0 28 28" fill="none" xmlns="http://www.w3.org/2000/svg">
<rect width="28" height="28" rx="4" fill="#2354C5"/>
<path d="M21 14.0002C20.9999 14.1302 20.9637 14.2576 20.8953 14.3681C20.8269 14.4786 20.7292 14.5679 20.6129 14.626L8.0129 20.926C7.89465 20.985 7.76212 21.0094 7.63063 20.9962C7.49914 20.983 7.37407 20.9329 7.26987 20.8516C7.16567 20.7703 7.08661 20.6612 7.04183 20.5369C6.99704 20.4126 6.98837 20.2781 7.0168 20.149L8.3832 14.0002L7.0168 7.85214C6.9882 7.72304 6.99675 7.58848 7.04147 7.46403C7.08618 7.33959 7.16523 7.23036 7.26945 7.14898C7.37368 7.0676 7.49883 7.01741 7.6304 7.00422C7.76198 6.99103 7.8946 7.01538 8.0129 7.07444L20.6129 13.3744C20.7292 13.4325 20.8269 13.5218 20.8953 13.6324C20.9637 13.7429 20.9999 13.8703 21 14.0002ZM9.6614 14.7002L8.7024 19.0164L17.3348 14.7002L9.6614 14.7002ZM17.3348 13.3002L8.7024 8.98404L9.6614 13.3002L17.3348 13.3002Z" fill="white"/>
</svg>
