<svg width="18" height="19" viewBox="0 0 18 19" fill="none" xmlns="http://www.w3.org/2000/svg">
<path d="M14 5.90002V2.90002C14 2.63481 13.8946 2.38045 13.7071 2.19292C13.5196 2.00538 13.2652 1.90002 13 1.90002H3C2.46957 1.90002 1.96086 2.11074 1.58579 2.48581C1.21071 2.86088 1 3.36959 1 3.90002M1 3.90002C1 4.43046 1.21071 4.93917 1.58579 5.31424C1.96086 5.68931 2.46957 5.90002 3 5.90002H15C15.2652 5.90002 15.5196 6.00538 15.7071 6.19292C15.8946 6.38045 16 6.63481 16 6.90002V9.90002M1 3.90002V15.9C1 16.4305 1.21071 16.9392 1.58579 17.3142C1.96086 17.6893 2.46957 17.9 3 17.9H15C15.2652 17.9 15.5196 17.7947 15.7071 17.6071C15.8946 17.4196 16 17.1652 16 16.9V13.9" stroke="#5A595B" stroke-width="2" stroke-linecap="round" stroke-linejoin="round"/>
<path d="M17 9.90002V13.9H13C12.4696 13.9 11.9609 13.6893 11.5858 13.3142C11.2107 12.9392 11 12.4305 11 11.9C11 11.3696 11.2107 10.8609 11.5858 10.4858C11.9609 10.1107 12.4696 9.90002 13 9.90002H17Z" stroke="#5A595B" stroke-width="2" stroke-linecap="round" stroke-linejoin="round"/>
</svg>
